<svg xmlns="http://www.w3.org/2000/svg" viewBox="0 0 16.41 18.49">
    <defs>
        <style>.cls-1{fill:#ed1e79;}.cls-2{fill:#fff;}</style>
    </defs>
    <title>jllogo</title>
    <g id="Layer_2" data-name="Layer 2">
        <g id="Layer_1-2" data-name="Layer 1">
            <polygon class="cls-1" points="12.93 0 12.93 5.59 11.84 5.93 11.78 5.95 11.78 0.36 11.84 0.34 12.93 0" />
            <path class="cls-1" d="M8.31,5.09v9.25A4.19,4.19,0,0,1,6,18.05l0,0a4.3,4.3,0,0,1-.78.29,2.29,2.29,0,0,1-.36.07,3.82,3.82,0,0,1-.68.06h-.1a4.15,4.15,0,0,1-1.53-8l.77-.25.37-.11v1.18l-.17.05-.07,0a1.91,1.91,0,0,0-.34.1,2.88,2.88,0,0,0-.86.51l0,0-.1.09L2,12.26H2l-.07.07-.08.09-.07.1-.09.11h0l-.08.12a3,3,0,0,0,2.47,4.57h.1a3,3,0,0,0,.68-.08,2.47,2.47,0,0,0,.36-.11A2.8,2.8,0,0,0,6,16.74l0,0a2.79,2.79,0,0,0,.46-.45l0-.05a.86.86,0,0,0,.07-.1h0L6.69,16v0l.08-.13a3,3,0,0,0,.39-1.48V5.46Z" />
            <polygon class="cls-2" points="16.41 6.13 16.41 7.32 13.81 8.13 12.93 8.41 11.84 8.75 11.78 8.77 10.69 9.12 10.64 9.13 9.56 9.47 9.5 9.49 9.5 1.08 9.56 1.06 10.64 0.72 10.64 7.95 10.69 7.93 11.19 7.78 11.78 7.59 11.84 7.57 12.93 7.23 13.81 6.95 16.13 6.22 16.4 6.14 16.41 6.13" />
            <path class="cls-2" d="M6,5.83V14a1.69,1.69,0,0,1-.15.74,1.77,1.77,0,0,1-1,1V6.2Z" />
        </g>
    </g>
</svg>
