<svg xmlns="http://www.w3.org/2000/svg" viewBox="0 0 909.76 230.46"><defs><style>.cls-1{fill:#ed1e79;}.cls-2{fill:#fff;}.cls-3{fill:#ae1e79;}</style></defs><title>yayyy</title><g id="Layer_2" data-name="Layer 2"><g id="Layer_1-2" data-name="Layer 1"><rect width="909.76" height="230.46"/><rect x="679.29" width="230.46" height="230.46"/><rect x="679.29" y="76.82" width="38.41" height="38.41"/><polygon class="cls-1" points="703.85 86.78 703.85 92.37 702.76 92.71 702.71 92.73 702.71 87.14 702.76 87.13 703.85 86.78"/><path class="cls-1" d="M699.23,91.88v9.24a4.14,4.14,0,0,1-1.15,2.86,4.19,4.19,0,0,1-1.14.85l-.05,0a4.3,4.3,0,0,1-.78.29l-.36.08a5.06,5.06,0,0,1-.68,0H695a4.15,4.15,0,0,1-4.05-4.15,4.19,4.19,0,0,1,2.52-3.82l.77-.25.37-.11v1.18l-.17.06-.07,0a2.24,2.24,0,0,0-.34.11,3,3,0,0,0-.86.5l0,0-.1.09-.13.12h0a.46.46,0,0,0-.07.07l-.08.09a.86.86,0,0,1-.07.1l-.09.11h0l-.08.12a3,3,0,0,0,2.47,4.58h.1a3,3,0,0,0,.68-.08,2.15,2.15,0,0,0,.36-.11,2.8,2.8,0,0,0,.78-.42l.05,0a2.79,2.79,0,0,0,.46-.45l0,0a.36.36,0,0,0,.07-.1h0l.09-.12h0l.09-.14a3.07,3.07,0,0,0,.38-1.48V92.24Z"/><polygon class="cls-2" points="707.34 92.92 707.34 94.1 704.73 94.91 703.85 95.19 702.76 95.53 702.71 95.55 701.62 95.9 701.56 95.91 700.48 96.25 700.42 96.27 700.42 87.86 700.48 87.84 701.56 87.5 701.56 94.73 701.62 94.71 702.11 94.56 702.71 94.37 702.76 94.35 703.85 94.01 704.73 93.73 707.05 93 707.33 92.92 707.34 92.92"/><path class="cls-2" d="M696.89,92.61v8.2a1.75,1.75,0,0,1-.15.74,1.84,1.84,0,0,1-1,1V93Z"/><rect x="717.7" y="38.41" width="38.41" height="38.41"/><polygon class="cls-1" points="742.26 48.37 742.26 53.96 741.17 54.3 741.12 54.32 741.12 48.73 741.17 48.72 742.26 48.37"/><path class="cls-1" d="M737.64,53.47v9.24a4.18,4.18,0,0,1-1.14,2.86,4.4,4.4,0,0,1-1.15.85l-.05,0a4.3,4.3,0,0,1-.78.29l-.36.08a5.06,5.06,0,0,1-.68,0h-.1a4.15,4.15,0,0,1-4-4.15,4.19,4.19,0,0,1,2.52-3.82l.77-.25.37-.11v1.18l-.17.06-.07,0a2.24,2.24,0,0,0-.34.11,2.77,2.77,0,0,0-.86.5l0,0-.1.09-.13.12h0l-.07.07-.08.09-.07.1L731,61h0l-.08.12a3,3,0,0,0,2.47,4.58h.1a3,3,0,0,0,.68-.08,2.15,2.15,0,0,0,.36-.11,2.8,2.8,0,0,0,.78-.42l.05,0a2.79,2.79,0,0,0,.46-.45l0-.05a.36.36,0,0,0,.07-.1h0l.09-.12h0l.09-.14a3.08,3.08,0,0,0,.39-1.48V53.83Z"/><polygon class="cls-2" points="745.75 54.51 745.75 55.69 743.14 56.5 742.26 56.78 741.17 57.12 741.12 57.14 740.02 57.49 739.97 57.5 738.89 57.84 738.83 57.86 738.83 49.45 738.89 49.43 739.97 49.09 739.97 56.32 740.02 56.3 740.52 56.15 741.12 55.96 741.17 55.94 742.26 55.6 743.14 55.32 745.46 54.59 745.74 54.51 745.75 54.51"/><path class="cls-2" d="M735.3,54.2v8.2a1.75,1.75,0,0,1-.15.74,1.84,1.84,0,0,1-1,1V54.57Z"/><rect x="756.12" width="38.41" height="38.41"/><polygon class="cls-1" points="780.67 9.96 780.67 15.55 779.58 15.89 779.53 15.91 779.53 10.32 779.58 10.3 780.67 9.96"/><path class="cls-1" d="M776.05,15.06V24.3a4.13,4.13,0,0,1-1.14,2.86,4.35,4.35,0,0,1-1.14.85l0,0a4.3,4.3,0,0,1-.78.29l-.37.08a4.8,4.8,0,0,1-.67.05h-.1a4.15,4.15,0,0,1-4-4.15,4.07,4.07,0,0,1,.51-2,4.14,4.14,0,0,1,2-1.82l.77-.25.37-.11V21.3l-.18.05-.06,0a1.91,1.91,0,0,0-.34.1A2.76,2.76,0,0,0,770,22a0,0,0,0,0,0,0l-.11.09-.12.12h0l-.06.07-.08.09-.08.1-.08.11h0l-.08.12a3,3,0,0,0,2.47,4.57h.1a2.93,2.93,0,0,0,.67-.08,2.26,2.26,0,0,0,.37-.11,2.94,2.94,0,0,0,.78-.42l0,0a2.4,2.4,0,0,0,.45-.45l0-.05.08-.1h0l.08-.12v0l.08-.13a3,3,0,0,0,.39-1.48V15.42Z"/><polygon class="cls-2" points="784.16 16.09 784.16 17.28 781.55 18.09 780.67 18.37 779.58 18.71 779.53 18.73 778.44 19.07 778.39 19.09 777.31 19.43 777.25 19.45 777.25 11.04 777.31 11.02 778.39 10.68 778.39 17.91 778.44 17.89 778.94 17.74 779.53 17.55 779.58 17.53 780.67 17.19 781.55 16.91 783.88 16.18 784.15 16.1 784.16 16.09"/><path class="cls-2" d="M773.72,15.79V24a1.85,1.85,0,0,1-.15.74,1.81,1.81,0,0,1-1,1V16.16Z"/><rect x="717.7" y="76.82" width="38.41" height="38.41"/><path class="cls-1" d="M734.19,92.45v7.16a4.49,4.49,0,0,1,0-7.16Z"/><path class="cls-1" d="M741.39,96a4.48,4.48,0,0,1-1.76,3.56V92.46A4.5,4.5,0,0,1,741.39,96Z"/><path class="cls-2" d="M745.22,97a8.37,8.37,0,0,1-3.82,6,8.31,8.31,0,0,1-4.46,1.29,8.45,8.45,0,0,1-2.38-.34,8.91,8.91,0,0,1-2.06-.93A8.38,8.38,0,0,1,728.66,97a8.26,8.26,0,0,1-.06-1v0a8.59,8.59,0,0,1,.07-1,8.33,8.33,0,0,1,3.83-6,8.18,8.18,0,0,1,4.44-1.28A8.33,8.33,0,0,1,745.21,95h-2a6.3,6.3,0,0,0-3.88-4.85,6.19,6.19,0,0,0-2.4-.47,6.27,6.27,0,0,0-2.38.46,6.3,6.3,0,0,0-3.9,4.86,5.77,5.77,0,0,0-.09,1v0a6.63,6.63,0,0,0,.08,1,6.4,6.4,0,0,0,1.85,3.57,6.6,6.6,0,0,0,2.06,1.34,6.46,6.46,0,0,0,2.38.46,6.38,6.38,0,0,0,2.4-.47,6.51,6.51,0,0,0,2.06-1.35A6.41,6.41,0,0,0,743.23,97Z"/><path class="cls-1" d="M737.74,91.63V95h-1.66V91.63a4.49,4.49,0,0,1,.83-.08A4.58,4.58,0,0,1,737.74,91.63Z"/><path class="cls-1" d="M737.74,97v3.39a3.83,3.83,0,0,1-.83.08,3.77,3.77,0,0,1-.83-.08V97Z"/><rect x="756.11" y="38.41" width="38.41" height="38.41"/><path class="cls-1" d="M772.6,54V61.2a4.5,4.5,0,0,1,0-7.17Z"/><path class="cls-1" d="M779.8,57.62A4.48,4.48,0,0,1,778,61.18V54.05A4.48,4.48,0,0,1,779.8,57.62Z"/><path class="cls-2" d="M783.63,58.62a8.36,8.36,0,0,1-10.66,7,8.91,8.91,0,0,1-2.06-.93,8.38,8.38,0,0,1-3.84-6.06,8.26,8.26,0,0,1-.06-1v0a8.59,8.59,0,0,1,.07-1,8.31,8.31,0,0,1,3.83-6,8.18,8.18,0,0,1,4.44-1.28,8.33,8.33,0,0,1,8.27,7.29h-2a6.46,6.46,0,0,0-1.83-3.51,6.58,6.58,0,0,0-2-1.35,6.46,6.46,0,0,0-2.41-.46,6.27,6.27,0,0,0-2.38.46,6.3,6.3,0,0,0-3.9,4.86,5.69,5.69,0,0,0-.09,1v0a6.63,6.63,0,0,0,.08,1,6.31,6.31,0,0,0,3.91,4.9,6.27,6.27,0,0,0,2.38.47,6.47,6.47,0,0,0,2.41-.47,6.58,6.58,0,0,0,2-1.35,6.41,6.41,0,0,0,1.83-3.55Z"/><path class="cls-1" d="M776.15,53.22v3.35h-1.66V53.22a4.35,4.35,0,0,1,1.66,0Z"/><path class="cls-1" d="M776.15,58.62V62a4.35,4.35,0,0,1-1.66,0V58.62Z"/><rect x="679.29" width="38.41" height="38.41"/><path class="cls-1" d="M695.78,15.62v7.17a4.5,4.5,0,0,1,0-7.17Z"/><path class="cls-1" d="M703,19.21a4.48,4.48,0,0,1-1.76,3.56V15.64A4.48,4.48,0,0,1,703,19.21Z"/><path class="cls-2" d="M706.81,20.21a8.37,8.37,0,0,1-3.82,6,8.31,8.31,0,0,1-4.46,1.29,8.45,8.45,0,0,1-2.38-.34,8.91,8.91,0,0,1-2.06-.93,8.38,8.38,0,0,1-3.84-6.06,8.26,8.26,0,0,1-.06-1v0a8.59,8.59,0,0,1,.07-1,8.35,8.35,0,0,1,3.83-6,8.91,8.91,0,0,1,2.06-.93,8.45,8.45,0,0,1,2.38-.34A8.31,8.31,0,0,1,703,12.16a8.34,8.34,0,0,1,3.81,6h-2A6.38,6.38,0,0,0,703,14.65a6.51,6.51,0,0,0-2.06-1.35,6.38,6.38,0,0,0-2.4-.47,6.27,6.27,0,0,0-2.38.47,6.33,6.33,0,0,0-3.91,4.86,6.8,6.8,0,0,0-.08,1v0a6.63,6.63,0,0,0,.08,1,6.31,6.31,0,0,0,3.91,4.9,6.27,6.27,0,0,0,2.38.47,6.38,6.38,0,0,0,2.4-.47A6.51,6.51,0,0,0,703,23.76a6.41,6.41,0,0,0,1.83-3.55Z"/><path class="cls-1" d="M699.33,14.81v3.35h-1.66V14.81a4.49,4.49,0,0,1,.83-.08A4.58,4.58,0,0,1,699.33,14.81Z"/><path class="cls-1" d="M699.33,20.21V23.6a4.58,4.58,0,0,1-.83.08,4.49,4.49,0,0,1-.83-.08V20.21Z"/><rect x="756.11" y="76.82" width="38.41" height="38.41"/><path class="cls-1" d="M778.11,96h0a1,1,0,0,1,0,1.34,1,1,0,0,1-1.35,0h0a1,1,0,0,1,0-1.34,1,1,0,0,1,1.35,0Z"/><path class="cls-2" d="M770.25,88.11,776.09,94a1,1,0,0,1,0,1.35,1,1,0,0,1-1.34,0l-.65-.65a1,1,0,0,0-1.35,0,1,1,0,0,0,0,1.34l3.43,3.43a.95.95,0,0,1-1.34,1.34L768,93.91a1,1,0,0,1,1.35-1.34l1,1a1,1,0,0,0,1.34,0,1,1,0,0,0,0-1.35l-2.79-2.79a1,1,0,0,1,1.34-1.35Z"/><path class="cls-1" d="M780.06,97.92l1.7,1.7a2.85,2.85,0,1,1-4,4l-.9-.89a1,1,0,0,1,0-1.35,1,1,0,0,1,1.35,0l1.05,1.06a1,1,0,0,0,1.34,0,1,1,0,0,0,0-1.35l-1.86-1.86a1,1,0,0,1,1.35-1.34Z"/><rect x="679.29" y="38.41" width="38.41" height="38.41"/><path class="cls-1" d="M701.29,57.56h0a1,1,0,0,1,0,1.34,1,1,0,0,1-1.35,0h0a1,1,0,0,1,1.35-1.34Z"/><path class="cls-2" d="M693.43,49.7l5.84,5.84a1,1,0,0,1,0,1.35,1,1,0,0,1-1.34,0l-.65-.65a1,1,0,0,0-1.35,1.34L699.36,61A.95.95,0,1,1,698,62.35l-6.86-6.85a1,1,0,0,1,0-1.35,1,1,0,0,1,1.35,0l1,1a1,1,0,1,0,1.34-1.35l-2.79-2.79a1,1,0,0,1,1.34-1.35Z"/><path class="cls-1" d="M703.24,59.51l1.7,1.7a2.85,2.85,0,1,1-4,4l-.9-.89A1,1,0,0,1,700,63a1,1,0,0,1,.67-.27.94.94,0,0,1,.67.27l1.06,1.06a1,1,0,0,0,1.34-1.35l-1.86-1.86a1,1,0,0,1,1.35-1.34Z"/><rect x="717.7" width="38.41" height="38.41"/><path class="cls-1" d="M739.7,19.15h0a1,1,0,0,1,0,1.34,1,1,0,0,1-1.35,0h0a1,1,0,0,1,1.35-1.34Z"/><path class="cls-2" d="M731.84,11.29l5.84,5.84a1,1,0,0,1,0,1.35,1,1,0,0,1-1.34,0l-.65-.65a1,1,0,0,0-1.35,1.34l3.43,3.43a.95.95,0,0,1-1.34,1.34l-6.86-6.85a1,1,0,0,1,0-1.35,1,1,0,0,1,1.35,0l1,1a.95.95,0,1,0,1.34-1.34l-2.79-2.79a1,1,0,0,1,1.34-1.35Z"/><path class="cls-1" d="M741.65,21.1l1.7,1.7a2.85,2.85,0,1,1-4,4l-.9-.89a1,1,0,0,1,0-1.35,1,1,0,0,1,1.35,0l1.05,1.05a.95.95,0,0,0,1.34-1.34l-1.86-1.86a1,1,0,0,1,1.35-1.34Z"/><rect x="794.53" y="76.82" width="38.41" height="38.41"/><polygon class="cls-1" points="819.08 86.78 819.08 92.37 817.99 92.71 817.94 92.73 817.94 87.14 817.99 87.13 819.08 86.78"/><path class="cls-1" d="M814.46,91.88v9.24a4.18,4.18,0,0,1-1.14,2.86,4.4,4.4,0,0,1-1.15.85l0,0a4.3,4.3,0,0,1-.78.29l-.36.08a5,5,0,0,1-.67,0h-.11a4.16,4.16,0,0,1-4.05-4.15,4.19,4.19,0,0,1,2.52-3.82l.78-.25.36-.11v1.18l-.17.06-.07,0a2.24,2.24,0,0,0-.34.11,2.8,2.8,0,0,0-.85.5l0,0-.1.09-.13.12h0l-.07.07-.08.09a.86.86,0,0,1-.07.1l-.08.11h0l-.07.12a3,3,0,0,0,2.46,4.58h.11a3,3,0,0,0,.67-.08,2.15,2.15,0,0,0,.36-.11,2.8,2.8,0,0,0,.78-.42l0,0a2.79,2.79,0,0,0,.46-.45l0,0a.36.36,0,0,0,.07-.1h0l.09-.12h0l.09-.14a3.08,3.08,0,0,0,.39-1.48V92.24Z"/><polygon class="cls-2" points="822.57 92.92 822.57 94.1 819.96 94.91 819.08 95.19 817.99 95.53 817.94 95.55 816.85 95.9 816.79 95.91 815.72 96.25 815.65 96.27 815.65 87.86 815.72 87.84 816.79 87.5 816.79 94.73 816.85 94.71 817.34 94.56 817.94 94.37 817.99 94.35 819.08 94.01 819.96 93.73 822.28 93 822.56 92.92 822.57 92.92"/><path class="cls-2" d="M812.12,92.61v8.2A1.74,1.74,0,0,1,811,102.5V93Z"/><rect x="832.94" y="38.41" width="38.41" height="38.41"/><polygon class="cls-1" points="857.49 48.37 857.49 53.96 856.4 54.3 856.35 54.32 856.35 48.73 856.4 48.72 857.49 48.37"/><path class="cls-1" d="M852.87,53.47v9.24a4.18,4.18,0,0,1-1.14,2.86,4.4,4.4,0,0,1-1.15.85l-.05,0a4,4,0,0,1-.78.29l-.36.08a5,5,0,0,1-.67,0h-.11a4.16,4.16,0,0,1-4.05-4.15,4.19,4.19,0,0,1,2.52-3.82l.78-.25.36-.11v1.18l-.17.06-.07,0a2.24,2.24,0,0,0-.34.11,2.61,2.61,0,0,0-.85.5l0,0-.1.09-.13.12h0l-.07.07-.08.09-.07.1a.76.76,0,0,0-.08.11h0l-.07.12a3,3,0,0,0,2.46,4.58h.11a3,3,0,0,0,.67-.08,2.15,2.15,0,0,0,.36-.11,2.66,2.66,0,0,0,.78-.42l.05,0a2.79,2.79,0,0,0,.46-.45l0-.05a.36.36,0,0,0,.07-.1h0l.09-.12h0l.09-.14a3,3,0,0,0,.39-1.48V53.83Z"/><polygon class="cls-2" points="860.98 54.51 860.98 55.69 858.37 56.5 857.49 56.78 856.4 57.12 856.35 57.14 855.26 57.49 855.2 57.5 854.13 57.84 854.06 57.86 854.06 49.45 854.13 49.43 855.2 49.09 855.2 56.32 855.26 56.3 855.75 56.15 856.35 55.96 856.4 55.94 857.49 55.6 858.37 55.32 860.69 54.59 860.97 54.51 860.98 54.51"/><path class="cls-2" d="M850.53,54.2v8.2a1.74,1.74,0,0,1-1.14,1.69V54.57Z"/><rect x="871.35" width="38.41" height="38.41"/><polygon class="cls-1" points="895.9 9.96 895.9 15.55 894.81 15.89 894.76 15.91 894.76 10.32 894.81 10.3 895.9 9.96"/><path class="cls-1" d="M891.28,15.06V24.3a4.13,4.13,0,0,1-1.14,2.86A4.35,4.35,0,0,1,889,28l0,0a4.3,4.3,0,0,1-.78.29l-.36.08a5.06,5.06,0,0,1-.68.05H887a4.15,4.15,0,0,1-4-4.15,4.07,4.07,0,0,1,.51-2,4.14,4.14,0,0,1,2-1.82l.77-.25.37-.11V21.3l-.17.05-.07,0a1.91,1.91,0,0,0-.34.1,2.76,2.76,0,0,0-.86.51l0,0-.1.09-.13.12h0l-.06.07-.08.09-.08.1a.76.76,0,0,1-.08.11h0l-.08.12A3,3,0,0,0,887,27.3h.1a3.08,3.08,0,0,0,.68-.08,2.47,2.47,0,0,0,.36-.11,2.94,2.94,0,0,0,.78-.42l0,0a2.4,2.4,0,0,0,.45-.45l0-.05a.86.86,0,0,0,.07-.1h0l.08-.12v0l.08-.13a3,3,0,0,0,.39-1.48V15.42Z"/><polygon class="cls-2" points="899.39 16.09 899.39 17.28 896.79 18.09 895.9 18.37 894.81 18.71 894.76 18.73 893.67 19.07 893.62 19.09 892.54 19.43 892.48 19.45 892.48 11.04 892.54 11.02 893.62 10.68 893.62 17.91 893.67 17.89 894.17 17.74 894.76 17.55 894.81 17.53 895.9 17.19 896.79 16.91 899.11 16.18 899.38 16.1 899.39 16.09"/><path class="cls-2" d="M889,15.79V24a1.85,1.85,0,0,1-.15.74,1.83,1.83,0,0,1-1,1V16.16Z"/><rect x="832.94" y="76.82" width="38.41" height="38.41"/><path class="cls-1" d="M849.42,92.45v7.16a4.49,4.49,0,0,1,0-7.16Z"/><path class="cls-1" d="M856.62,96a4.48,4.48,0,0,1-1.76,3.56V92.46A4.5,4.5,0,0,1,856.62,96Z"/><path class="cls-2" d="M860.45,97a8.36,8.36,0,0,1-10.66,7,8.65,8.65,0,0,1-2-.93A8.36,8.36,0,0,1,843.89,97a8.26,8.26,0,0,1-.06-1v0a8.59,8.59,0,0,1,.07-1,8.41,8.41,0,0,1,5.89-7,8.45,8.45,0,0,1,2.38-.34A8.33,8.33,0,0,1,860.44,95h-2a6.46,6.46,0,0,0-1.83-3.51,6.38,6.38,0,0,0-2-1.34A6.37,6.37,0,0,0,845.89,95a5.77,5.77,0,0,0-.09,1v0a6.63,6.63,0,0,0,.08,1,6.35,6.35,0,0,0,1.86,3.57,6.37,6.37,0,0,0,6.84,1.33,6.58,6.58,0,0,0,2-1.35A6.41,6.41,0,0,0,858.46,97Z"/><path class="cls-1" d="M853,91.63V95h-1.66V91.63a4.58,4.58,0,0,1,.83-.08A4.49,4.49,0,0,1,853,91.63Z"/><path class="cls-1" d="M853,97v3.39a3.77,3.77,0,0,1-.83.08,3.83,3.83,0,0,1-.83-.08V97Z"/><rect x="871.35" y="38.41" width="38.41" height="38.41"/><path class="cls-1" d="M887.83,54V61.2a4.5,4.5,0,0,1,0-7.17Z"/><path class="cls-1" d="M895,57.62a4.48,4.48,0,0,1-1.76,3.56V54.05A4.48,4.48,0,0,1,895,57.62Z"/><path class="cls-2" d="M898.86,58.62a8.36,8.36,0,0,1-10.66,7,8.65,8.65,0,0,1-2.05-.93,8.36,8.36,0,0,1-3.85-6.06,8.26,8.26,0,0,1-.06-1v0c0-.34,0-.69.07-1a8.41,8.41,0,0,1,5.89-7,8.45,8.45,0,0,1,2.38-.34,8.33,8.33,0,0,1,8.27,7.29h-2A6.46,6.46,0,0,0,895,53.06a6.58,6.58,0,0,0-2-1.35,6.46,6.46,0,0,0-2.41-.46,6.36,6.36,0,0,0-6.28,5.32,5.69,5.69,0,0,0-.09,1v0a6.63,6.63,0,0,0,.08,1,6.35,6.35,0,0,0,1.86,3.57,6.44,6.44,0,0,0,4.43,1.8,6.47,6.47,0,0,0,2.41-.47,6.58,6.58,0,0,0,2-1.35,6.41,6.41,0,0,0,1.83-3.55Z"/><path class="cls-1" d="M891.38,53.22v3.35h-1.66V53.22a4.58,4.58,0,0,1,.83-.08A4.49,4.49,0,0,1,891.38,53.22Z"/><path class="cls-1" d="M891.38,58.62V62a3.77,3.77,0,0,1-.83.08,3.83,3.83,0,0,1-.83-.08V58.62Z"/><rect x="794.53" width="38.41" height="38.41"/><path class="cls-1" d="M811,15.62v7.17a4.5,4.5,0,0,1,0-7.17Z"/><path class="cls-1" d="M818.21,19.21a4.48,4.48,0,0,1-1.76,3.56V15.64A4.48,4.48,0,0,1,818.21,19.21Z"/><path class="cls-2" d="M822,20.21a8.36,8.36,0,0,1-10.66,7,8.91,8.91,0,0,1-2.06-.93,8.38,8.38,0,0,1-3.84-6.06,8.26,8.26,0,0,1-.06-1v0a8.59,8.59,0,0,1,.07-1,8.35,8.35,0,0,1,3.83-6,8.91,8.91,0,0,1,2.06-.93,8.45,8.45,0,0,1,2.38-.34A8.33,8.33,0,0,1,822,18.16h-2a6.46,6.46,0,0,0-1.83-3.51,6.58,6.58,0,0,0-2.05-1.35,6.47,6.47,0,0,0-2.41-.47,6.27,6.27,0,0,0-2.38.47,6.4,6.4,0,0,0-2.06,1.33,6.34,6.34,0,0,0-1.84,3.53,5.69,5.69,0,0,0-.09,1v0a6.63,6.63,0,0,0,.08,1,6.31,6.31,0,0,0,3.91,4.9,6.27,6.27,0,0,0,2.38.47,6.47,6.47,0,0,0,2.41-.47,6.58,6.58,0,0,0,2.05-1.35,6.41,6.41,0,0,0,1.83-3.55Z"/><path class="cls-1" d="M814.56,14.81v3.35H812.9V14.81a4.58,4.58,0,0,1,.83-.08A4.49,4.49,0,0,1,814.56,14.81Z"/><path class="cls-1" d="M814.56,20.21V23.6a4.49,4.49,0,0,1-.83.08,4.58,4.58,0,0,1-.83-.08V20.21Z"/><rect x="871.35" y="76.82" width="38.41" height="38.41"/><path class="cls-1" d="M893.34,96h0A.95.95,0,1,1,892,97.31h0a1,1,0,0,1,.67-1.62A1,1,0,0,1,893.34,96Z"/><path class="cls-2" d="M885.48,88.11,891.32,94a1,1,0,0,1,0,1.35,1,1,0,0,1-1.34,0l-.65-.65a.92.92,0,0,0-.67-.28.91.91,0,0,0-.67.28A1,1,0,0,0,888,96l3.42,3.43a.95.95,0,0,1-1.34,1.34l-6.86-6.85a1,1,0,0,1,0-1.34,1,1,0,0,1,1.35,0l1,1a1,1,0,0,0,1.34,0,1,1,0,0,0,0-1.35l-2.79-2.79a1,1,0,0,1,1.34-1.35Z"/><path class="cls-1" d="M895.29,97.92l1.7,1.7a2.85,2.85,0,1,1-4,4l-.9-.89a1,1,0,0,1,0-1.35,1,1,0,0,1,1.35,0l1.05,1.06a1,1,0,0,0,1.34,0,1,1,0,0,0,0-1.35l-1.86-1.86a1,1,0,0,1,1.35-1.34Z"/><rect x="794.53" y="38.41" width="38.41" height="38.41"/><path class="cls-1" d="M816.52,57.56h0a1,1,0,0,1,0,1.34,1,1,0,0,1-1.35,0h0a1,1,0,0,1,0-1.34,1,1,0,0,1,1.35,0Z"/><path class="cls-2" d="M808.66,49.7l5.84,5.84a1,1,0,0,1,0,1.35,1,1,0,0,1-1.34,0l-.65-.65a.94.94,0,0,0-.67-.28.91.91,0,0,0-.67.28,1,1,0,0,0,0,1.34L814.59,61a.95.95,0,1,1-1.34,1.34l-6.86-6.85a1,1,0,0,1,0-1.35,1,1,0,0,1,1.35,0l1,1a1,1,0,1,0,1.34-1.35l-2.79-2.79a1,1,0,0,1,1.34-1.35Z"/><path class="cls-1" d="M818.47,59.51l1.7,1.7a2.85,2.85,0,1,1-4,4l-.9-.89a1,1,0,0,1,0-1.35,1,1,0,0,1,1.35,0l1,1.06A1,1,0,0,0,819,62.71l-1.86-1.86a1,1,0,0,1,1.35-1.34Z"/><rect x="832.94" width="38.41" height="38.41"/><path class="cls-1" d="M854.93,19.15h0a1,1,0,0,1,0,1.34,1,1,0,0,1-1.35,0h0a1,1,0,0,1,0-1.34,1,1,0,0,1,1.35,0Z"/><path class="cls-2" d="M847.07,11.29l5.84,5.84a1,1,0,0,1,0,1.35,1,1,0,0,1-1.34,0l-.65-.65a.94.94,0,0,0-.67-.28.91.91,0,0,0-.67.28,1,1,0,0,0,0,1.34L853,22.6a.95.95,0,0,1-1.34,1.34l-6.86-6.85a1,1,0,0,1,0-1.35,1,1,0,0,1,1.35,0l1,1a.95.95,0,0,0,1.34-1.34l-2.79-2.79a1,1,0,0,1,1.34-1.35Z"/><path class="cls-1" d="M856.88,21.1l1.7,1.7a2.85,2.85,0,1,1-4,4l-.9-.89a1,1,0,0,1,0-1.35,1,1,0,0,1,1.35,0l1,1.05a.95.95,0,1,0,1.34-1.34l-1.86-1.86a1,1,0,0,1,1.35-1.34Z"/><rect x="679.29" y="192.05" width="38.41" height="38.41"/><polygon class="cls-1" points="703.85 202.01 703.85 207.6 702.76 207.94 702.71 207.96 702.71 202.37 702.76 202.36 703.85 202.01"/><path class="cls-1" d="M699.23,207.11v9.24a4.14,4.14,0,0,1-1.15,2.86,4.19,4.19,0,0,1-1.14.85l-.05,0a4.3,4.3,0,0,1-.78.29l-.36.08a5.06,5.06,0,0,1-.68.05H695a4.15,4.15,0,0,1-4.05-4.15,4.19,4.19,0,0,1,2.52-3.82l.77-.24.37-.12v1.18l-.17.06-.07,0a2.24,2.24,0,0,0-.34.11,3.22,3.22,0,0,0-.86.5s0,0,0,0l-.1.09-.13.12h0l-.07.07-.08.09a.86.86,0,0,1-.07.1l-.09.12h0l-.08.12a3,3,0,0,0,2.47,4.58h.1a3,3,0,0,0,.68-.08,2.12,2.12,0,0,0,.36-.1,3.11,3.11,0,0,0,.78-.43l.05,0a2.79,2.79,0,0,0,.46-.45l0,0a.36.36,0,0,0,.07-.1h0l.09-.12h0l.09-.14a3.07,3.07,0,0,0,.38-1.48v-8.88Z"/><polygon class="cls-2" points="707.34 208.15 707.34 209.33 704.73 210.14 703.85 210.42 702.76 210.77 702.71 210.78 701.62 211.13 701.56 211.15 700.48 211.49 700.42 211.5 700.42 203.09 700.48 203.08 701.56 202.74 701.56 209.96 701.62 209.94 702.11 209.79 702.71 209.6 702.76 209.58 703.85 209.24 704.73 208.96 707.05 208.24 707.33 208.15 707.34 208.15"/><path class="cls-2" d="M696.89,207.85V216a1.75,1.75,0,0,1-.15.74,1.84,1.84,0,0,1-1,.95v-9.52Z"/><rect x="717.7" y="153.64" width="38.41" height="38.41"/><polygon class="cls-1" points="742.26 163.6 742.26 169.19 741.17 169.53 741.12 169.55 741.12 163.96 741.17 163.95 742.26 163.6"/><path class="cls-1" d="M737.64,168.7v9.24a4.18,4.18,0,0,1-1.14,2.86,4.4,4.4,0,0,1-1.15.85l-.05,0a4.3,4.3,0,0,1-.78.29l-.36.08a5.06,5.06,0,0,1-.68.05h-.1a4.15,4.15,0,0,1-4-4.15,4.19,4.19,0,0,1,2.52-3.82l.77-.24.37-.12v1.18l-.17.06-.07,0a2.24,2.24,0,0,0-.34.11,3.22,3.22,0,0,0-.86.5l0,0-.1.09-.13.12h0l-.07.07-.08.09a.86.86,0,0,1-.07.1l-.09.12h0l-.08.12a3,3,0,0,0,2.47,4.58h.1a3,3,0,0,0,.68-.08,2.12,2.12,0,0,0,.36-.1,3.11,3.11,0,0,0,.78-.43l.05,0a2.79,2.79,0,0,0,.46-.45l0,0a.36.36,0,0,0,.07-.1h0l.09-.12h0l.09-.14a3.08,3.08,0,0,0,.39-1.48v-8.88Z"/><polygon class="cls-2" points="745.75 169.74 745.75 170.92 743.14 171.73 742.26 172.01 741.17 172.35 741.12 172.37 740.02 172.72 739.97 172.73 738.89 173.07 738.83 173.09 738.83 164.69 738.89 164.66 739.97 164.32 739.97 171.55 740.02 171.53 740.52 171.38 741.12 171.19 741.17 171.17 742.26 170.83 743.14 170.55 745.46 169.82 745.74 169.74 745.75 169.74"/><path class="cls-2" d="M735.3,169.44v8.19a1.75,1.75,0,0,1-.15.74,1.84,1.84,0,0,1-1,.95V169.8Z"/><rect x="756.12" y="115.23" width="38.41" height="38.41"/><polygon class="cls-1" points="780.67 125.19 780.67 130.78 779.58 131.12 779.53 131.14 779.53 125.55 779.58 125.54 780.67 125.19"/><path class="cls-1" d="M776.05,130.29v9.24a4.13,4.13,0,0,1-1.14,2.86,4.35,4.35,0,0,1-1.14.85l0,0a4.3,4.3,0,0,1-.78.29l-.37.08a4.8,4.8,0,0,1-.67.05h-.1a4.15,4.15,0,0,1-4-4.15,4.07,4.07,0,0,1,.51-2,4.14,4.14,0,0,1,2-1.82l.77-.25.37-.11v1.18l-.18.06-.06,0a1.93,1.93,0,0,0-.34.11,2.94,2.94,0,0,0-.86.5,0,0,0,0,0,0,0l-.11.09-.12.12h0l-.06.07-.08.09-.08.1a1,1,0,0,1-.08.11h0a.83.83,0,0,0-.08.12,3,3,0,0,0,2.47,4.58h.1a2.93,2.93,0,0,0,.67-.08,2.24,2.24,0,0,0,.37-.1,3.3,3.3,0,0,0,.78-.43l0,0a2.4,2.4,0,0,0,.45-.45.1.1,0,0,0,0-.05l.08-.1h0l.08-.12h0a1,1,0,0,0,.08-.14,3,3,0,0,0,.39-1.48v-8.88Z"/><polygon class="cls-2" points="784.16 131.33 784.16 132.51 781.55 133.32 780.67 133.6 779.58 133.94 779.53 133.96 778.44 134.31 778.39 134.32 777.31 134.66 777.25 134.68 777.25 126.28 777.31 126.25 778.39 125.91 778.39 133.14 778.44 133.12 778.94 132.97 779.53 132.78 779.58 132.76 780.67 132.42 781.55 132.14 783.88 131.41 784.15 131.33 784.16 131.33"/><path class="cls-2" d="M773.72,131v8.19a1.92,1.92,0,0,1-.15.74,1.83,1.83,0,0,1-1,.95v-9.52Z"/><rect x="717.7" y="192.05" width="38.41" height="38.41"/><path class="cls-1" d="M734.19,207.68v7.16a4.49,4.49,0,0,1,0-7.16Z"/><path class="cls-1" d="M741.39,211.26a4.48,4.48,0,0,1-1.76,3.56V207.7A4.48,4.48,0,0,1,741.39,211.26Z"/><path class="cls-2" d="M745.22,212.26a8.35,8.35,0,0,1-3.82,6,8.31,8.31,0,0,1-4.46,1.29,8.32,8.32,0,0,1-8.28-7.33,8.26,8.26,0,0,1-.06-1v0a8.76,8.76,0,0,1,.07-1,8.35,8.35,0,0,1,3.83-6,8.42,8.42,0,0,1,4.44-1.28,8.33,8.33,0,0,1,8.27,7.29h-2a6.32,6.32,0,0,0-1.82-3.5,6.39,6.39,0,0,0-4.46-1.82,6.27,6.27,0,0,0-2.38.46,6.57,6.57,0,0,0-2.06,1.33,6.37,6.37,0,0,0-1.84,3.53,5.8,5.8,0,0,0-.09,1v0a6.63,6.63,0,0,0,.08,1,6.36,6.36,0,0,0,3.91,4.91,6.46,6.46,0,0,0,2.38.46,6.38,6.38,0,0,0,2.4-.47,6.51,6.51,0,0,0,2.06-1.35,6.41,6.41,0,0,0,1.83-3.55Z"/><path class="cls-1" d="M737.74,206.86v3.35h-1.66v-3.35a4.49,4.49,0,0,1,.83-.08A4.58,4.58,0,0,1,737.74,206.86Z"/><path class="cls-1" d="M737.74,212.26v3.4a4.57,4.57,0,0,1-.83.07,4.5,4.5,0,0,1-.83-.07v-3.4Z"/><rect x="756.11" y="153.64" width="38.41" height="38.41"/><path class="cls-1" d="M772.6,169.27v7.16a4.49,4.49,0,0,1,0-7.16Z"/><path class="cls-1" d="M779.8,172.85a4.48,4.48,0,0,1-1.76,3.56v-7.12A4.48,4.48,0,0,1,779.8,172.85Z"/><path class="cls-2" d="M783.63,173.85a8.36,8.36,0,0,1-10.66,7,8.91,8.91,0,0,1-2.06-.93,8.38,8.38,0,0,1-3.84-6.06,8.26,8.26,0,0,1-.06-1v0a8.76,8.76,0,0,1,.07-1,8.35,8.35,0,0,1,3.83-6,8.42,8.42,0,0,1,4.44-1.28,8.33,8.33,0,0,1,8.27,7.29h-2a6.4,6.4,0,0,0-1.83-3.5,6.38,6.38,0,0,0-6.84-1.36,6.57,6.57,0,0,0-2.06,1.33,6.37,6.37,0,0,0-1.84,3.53,5.8,5.8,0,0,0-.09,1v0a6.63,6.63,0,0,0,.08,1,6.4,6.4,0,0,0,1.85,3.57,6.6,6.6,0,0,0,2.06,1.34,6.4,6.4,0,0,0,4.79,0,6.58,6.58,0,0,0,2-1.35,6.41,6.41,0,0,0,1.83-3.55Z"/><path class="cls-1" d="M776.15,168.45v3.35h-1.66v-3.35a4.35,4.35,0,0,1,1.66,0Z"/><path class="cls-1" d="M776.15,173.85v3.4a5,5,0,0,1-1.66,0v-3.4Z"/><rect x="679.29" y="115.23" width="38.41" height="38.41"/><path class="cls-1" d="M695.78,130.86V138a4.49,4.49,0,0,1,0-7.16Z"/><path class="cls-1" d="M703,134.44a4.48,4.48,0,0,1-1.76,3.56v-7.13A4.51,4.51,0,0,1,703,134.44Z"/><path class="cls-2" d="M706.81,135.44a8.37,8.37,0,0,1-3.82,6,8.31,8.31,0,0,1-4.46,1.29,8.45,8.45,0,0,1-2.38-.34,8.91,8.91,0,0,1-2.06-.93,8.38,8.38,0,0,1-3.84-6.06,8.26,8.26,0,0,1-.06-1v0a8.74,8.74,0,0,1,.07-1,8.35,8.35,0,0,1,3.83-6,8.42,8.42,0,0,1,4.44-1.28,8.31,8.31,0,0,1,4.46,1.29,8.34,8.34,0,0,1,3.81,6h-2a6.3,6.3,0,0,0-3.88-4.85,6.19,6.19,0,0,0-2.4-.47,6.27,6.27,0,0,0-2.38.46,6.57,6.57,0,0,0-2.06,1.33,6.45,6.45,0,0,0-1.85,3.53,6.9,6.9,0,0,0-.08,1v0a6.63,6.63,0,0,0,.08,1,6.4,6.4,0,0,0,1.85,3.57,6.6,6.6,0,0,0,2.06,1.34,6.46,6.46,0,0,0,2.38.46,6.38,6.38,0,0,0,2.4-.47A6.51,6.51,0,0,0,703,139a6.41,6.41,0,0,0,1.83-3.55Z"/><path class="cls-1" d="M699.33,130v3.35h-1.66V130a4.49,4.49,0,0,1,.83-.08A4.58,4.58,0,0,1,699.33,130Z"/><path class="cls-1" d="M699.33,135.44v3.39a3.83,3.83,0,0,1-.83.08,3.77,3.77,0,0,1-.83-.08v-3.39Z"/><rect x="756.11" y="192.05" width="38.41" height="38.41"/><path class="cls-1" d="M778.11,211.2h0a1,1,0,0,1,0,1.34,1,1,0,0,1-1.35,0h0a1,1,0,0,1,0-1.34,1,1,0,0,1,1.35,0Z"/><path class="cls-2" d="M770.25,203.35l5.84,5.84a.95.95,0,1,1-1.34,1.34l-.65-.65a1,1,0,0,0-1.35,0,1,1,0,0,0,0,1.34l3.43,3.43a.95.95,0,0,1-1.34,1.34L768,209.14a1,1,0,0,1,1.35-1.34l1,1a1,1,0,0,0,1.34,0,1,1,0,0,0,0-1.35l-2.79-2.79a1,1,0,0,1,0-1.34.94.94,0,0,1,1.34,0Z"/><path class="cls-1" d="M780.06,213.15l1.7,1.7a2.86,2.86,0,0,1-2,4.87,2.82,2.82,0,0,1-2.07-.84l-.9-.89a1,1,0,0,1,0-1.35,1,1,0,0,1,1.35,0l1.05,1.06a1,1,0,0,0,1.34,0,1,1,0,0,0,0-1.35l-1.86-1.86a1,1,0,0,1,1.35-1.34Z"/><rect x="679.29" y="153.64" width="38.41" height="38.41"/><path class="cls-1" d="M701.29,172.79h0a1,1,0,0,1,0,1.34,1,1,0,0,1-1.35,0h0a1,1,0,0,1,0-1.34,1,1,0,0,1,1.35,0Z"/><path class="cls-2" d="M693.43,164.93l5.84,5.84a1,1,0,0,1,0,1.35,1,1,0,0,1-1.34,0l-.65-.65a1,1,0,0,0-1.35,1.34l3.43,3.43a.95.95,0,1,1-1.34,1.34l-6.86-6.85a1,1,0,0,1,1.35-1.34l1,1a1,1,0,0,0,1.34,0,1,1,0,0,0,0-1.35l-2.79-2.79a1,1,0,0,1,1.34-1.35Z"/><path class="cls-1" d="M703.24,174.74l1.7,1.7a2.85,2.85,0,1,1-4,4l-.9-.89a1,1,0,0,1,0-1.35,1,1,0,0,1,.67-.27.94.94,0,0,1,.67.27l1.06,1.06a1,1,0,0,0,1.34,0,1,1,0,0,0,0-1.35l-1.86-1.86a1,1,0,0,1,1.35-1.34Z"/><rect x="717.7" y="115.23" width="38.41" height="38.41"/><path class="cls-1" d="M739.7,134.38h0a1,1,0,0,1,0,1.34,1,1,0,0,1-1.35,0h0a1,1,0,0,1,0-1.34,1,1,0,0,1,1.35,0Z"/><path class="cls-2" d="M731.84,126.52l5.84,5.84a1,1,0,0,1,0,1.35,1,1,0,0,1-1.34,0l-.65-.65a1,1,0,0,0-1.35,1.34l3.43,3.43a.95.95,0,0,1-1.34,1.34l-6.86-6.85a1,1,0,0,1,1.35-1.34l1,1a1,1,0,0,0,1.34,0,1,1,0,0,0,0-1.35l-2.79-2.79a1,1,0,0,1,1.34-1.35Z"/><path class="cls-1" d="M741.65,136.33l1.7,1.7a2.85,2.85,0,1,1-4,4l-.9-.89a1,1,0,0,1,0-1.35,1,1,0,0,1,1.35,0l1.05,1.06a1,1,0,0,0,1.34,0,1,1,0,0,0,0-1.35l-1.86-1.86a1,1,0,0,1,1.35-1.34Z"/><rect x="794.53" y="192.05" width="38.41" height="38.41"/><polygon class="cls-1" points="819.08 202.01 819.08 207.6 817.99 207.94 817.94 207.96 817.94 202.37 817.99 202.36 819.08 202.01"/><path class="cls-1" d="M814.46,207.11v9.24a4.18,4.18,0,0,1-1.14,2.86,4.4,4.4,0,0,1-1.15.85l0,0a4.3,4.3,0,0,1-.78.29l-.36.08a5,5,0,0,1-.67.05h-.11a4.15,4.15,0,0,1-4.05-4.15,4.19,4.19,0,0,1,2.52-3.82l.78-.24.36-.12v1.18l-.17.06-.07,0a2.24,2.24,0,0,0-.34.11,3,3,0,0,0-.85.5l0,0-.1.09-.13.12h0l-.07.07-.08.09a.86.86,0,0,1-.07.1l-.08.12h0l-.07.12a3,3,0,0,0,2.46,4.58h.11a3,3,0,0,0,.67-.08,2.12,2.12,0,0,0,.36-.1,3.11,3.11,0,0,0,.78-.43l0,0a2.79,2.79,0,0,0,.46-.45l0,0a.36.36,0,0,0,.07-.1h0l.09-.12h0l.09-.14a3.08,3.08,0,0,0,.39-1.48v-8.88Z"/><polygon class="cls-2" points="822.57 208.15 822.57 209.33 819.96 210.14 819.08 210.42 817.99 210.77 817.94 210.78 816.85 211.13 816.79 211.15 815.72 211.49 815.65 211.5 815.65 203.09 815.72 203.08 816.79 202.74 816.79 209.96 816.85 209.94 817.34 209.79 817.94 209.6 817.99 209.58 819.08 209.24 819.96 208.96 822.28 208.24 822.56 208.15 822.57 208.15"/><path class="cls-2" d="M812.12,207.85V216a1.74,1.74,0,0,1-1.14,1.69v-9.52Z"/><rect x="832.94" y="153.64" width="38.41" height="38.41"/><polygon class="cls-1" points="857.49 163.6 857.49 169.19 856.4 169.53 856.35 169.55 856.35 163.96 856.4 163.95 857.49 163.6"/><path class="cls-1" d="M852.87,168.7v9.24a4.18,4.18,0,0,1-1.14,2.86,4.4,4.4,0,0,1-1.15.85l-.05,0a4,4,0,0,1-.78.29l-.36.08a5,5,0,0,1-.67.05h-.11a4.15,4.15,0,0,1-4.05-4.15,4.19,4.19,0,0,1,2.52-3.82l.78-.24.36-.12v1.18l-.17.06-.07,0a2.24,2.24,0,0,0-.34.11,3,3,0,0,0-.85.5l0,0-.1.09-.13.12h0l-.07.07-.08.09a.86.86,0,0,1-.07.1l-.08.12h0l-.07.12a3,3,0,0,0,2.46,4.58h.11a3,3,0,0,0,.67-.08,2.12,2.12,0,0,0,.36-.1,3,3,0,0,0,.78-.43l.05,0a2.79,2.79,0,0,0,.46-.45l0,0a.36.36,0,0,0,.07-.1h0l.09-.12h0l.09-.14a3,3,0,0,0,.39-1.48v-8.88Z"/><polygon class="cls-2" points="860.98 169.74 860.98 170.92 858.37 171.73 857.49 172.01 856.4 172.35 856.35 172.37 855.26 172.72 855.2 172.73 854.13 173.07 854.06 173.09 854.06 164.69 854.13 164.66 855.2 164.32 855.2 171.55 855.26 171.53 855.75 171.38 856.35 171.19 856.4 171.17 857.49 170.83 858.37 170.55 860.69 169.82 860.97 169.74 860.98 169.74"/><path class="cls-2" d="M850.53,169.44v8.19a1.74,1.74,0,0,1-1.14,1.69V169.8Z"/><rect x="871.35" y="115.23" width="38.41" height="38.41"/><polygon class="cls-1" points="895.9 125.19 895.9 130.78 894.81 131.12 894.76 131.14 894.76 125.55 894.81 125.54 895.9 125.19"/><path class="cls-1" d="M891.28,130.29v9.24a4.13,4.13,0,0,1-1.14,2.86,4.35,4.35,0,0,1-1.14.85l0,0a4.3,4.3,0,0,1-.78.29l-.36.08a5.06,5.06,0,0,1-.68.05H887a4.15,4.15,0,0,1-4-4.15,4.07,4.07,0,0,1,.51-2,4.14,4.14,0,0,1,2-1.82l.77-.25.37-.11v1.18l-.17.06-.07,0a1.93,1.93,0,0,0-.34.11,2.94,2.94,0,0,0-.86.5l0,0-.1.09-.13.12h0l-.06.07-.08.09-.08.1a.44.44,0,0,1-.08.11h0l-.08.12a3,3,0,0,0,2.47,4.58h.1a3.08,3.08,0,0,0,.68-.08,2.42,2.42,0,0,0,.36-.1,3.3,3.3,0,0,0,.78-.43l0,0a2.4,2.4,0,0,0,.45-.45s0,0,0-.05a.86.86,0,0,0,.07-.1h0l.08-.12h0a1,1,0,0,0,.08-.14,3,3,0,0,0,.39-1.48v-8.88Z"/><polygon class="cls-2" points="899.39 131.33 899.39 132.51 896.79 133.32 895.9 133.6 894.81 133.94 894.76 133.96 893.67 134.31 893.62 134.32 892.54 134.66 892.48 134.68 892.48 126.28 892.54 126.25 893.62 125.91 893.62 133.14 893.67 133.12 894.17 132.97 894.76 132.78 894.81 132.76 895.9 132.42 896.79 132.14 899.11 131.41 899.38 131.33 899.39 131.33"/><path class="cls-2" d="M889,131v8.19a1.92,1.92,0,0,1-.15.74,1.84,1.84,0,0,1-1,.95v-9.52Z"/><rect x="832.94" y="192.05" width="38.41" height="38.41"/><path class="cls-1" d="M849.42,207.68v7.16a4.49,4.49,0,0,1,0-7.16Z"/><path class="cls-1" d="M856.62,211.26a4.48,4.48,0,0,1-1.76,3.56V207.7A4.48,4.48,0,0,1,856.62,211.26Z"/><path class="cls-2" d="M860.45,212.26a8.32,8.32,0,0,1-8.28,7.33,8.45,8.45,0,0,1-2.38-.34,8.27,8.27,0,0,1-2-.93,8.36,8.36,0,0,1-3.85-6.06,8.26,8.26,0,0,1-.06-1v0a8.76,8.76,0,0,1,.07-1,8.33,8.33,0,0,1,3.84-6,7.92,7.92,0,0,1,2-.93,8.11,8.11,0,0,1,2.38-.35,8.33,8.33,0,0,1,8.27,7.29h-2a6.4,6.4,0,0,0-1.83-3.5,6.38,6.38,0,0,0-6.84-1.36,6.41,6.41,0,0,0-2,1.33,6.32,6.32,0,0,0-1.85,3.53,5.8,5.8,0,0,0-.09,1v0a6.63,6.63,0,0,0,.08,1,6.35,6.35,0,0,0,1.86,3.57,6.28,6.28,0,0,0,2,1.34,6.4,6.4,0,0,0,4.79,0,6.58,6.58,0,0,0,2-1.35,6.41,6.41,0,0,0,1.83-3.55Z"/><path class="cls-1" d="M853,206.86v3.35h-1.66v-3.35a4.58,4.58,0,0,1,.83-.08A4.49,4.49,0,0,1,853,206.86Z"/><path class="cls-1" d="M853,212.26v3.4a4.5,4.5,0,0,1-.83.07,4.57,4.57,0,0,1-.83-.07v-3.4Z"/><rect x="871.35" y="153.64" width="38.41" height="38.41"/><path class="cls-1" d="M887.83,169.27v7.16a4.49,4.49,0,0,1,0-7.16Z"/><path class="cls-1" d="M895,172.85a4.48,4.48,0,0,1-1.76,3.56v-7.12A4.48,4.48,0,0,1,895,172.85Z"/><path class="cls-2" d="M898.86,173.85a8.36,8.36,0,0,1-10.66,7,8.65,8.65,0,0,1-2.05-.93,8.36,8.36,0,0,1-3.85-6.06,8.26,8.26,0,0,1-.06-1v0c0-.35,0-.69.07-1a8.33,8.33,0,0,1,3.84-6,7.92,7.92,0,0,1,2.05-.93,8.11,8.11,0,0,1,2.38-.35,8.33,8.33,0,0,1,8.27,7.29h-2a6.4,6.4,0,0,0-1.83-3.5,6.38,6.38,0,0,0-6.84-1.36,6.41,6.41,0,0,0-2.05,1.33,6.32,6.32,0,0,0-1.85,3.53,5.8,5.8,0,0,0-.09,1v0a6.63,6.63,0,0,0,.08,1,6.35,6.35,0,0,0,1.86,3.57,6.37,6.37,0,0,0,6.84,1.33,6.58,6.58,0,0,0,2-1.35,6.41,6.41,0,0,0,1.83-3.55Z"/><path class="cls-1" d="M891.38,168.45v3.35h-1.66v-3.35a4.58,4.58,0,0,1,.83-.08A4.49,4.49,0,0,1,891.38,168.45Z"/><path class="cls-1" d="M891.38,173.85v3.4a4.5,4.5,0,0,1-.83.07,4.57,4.57,0,0,1-.83-.07v-3.4Z"/><rect x="794.53" y="115.23" width="38.41" height="38.41"/><path class="cls-1" d="M811,130.86V138a4.49,4.49,0,0,1,0-7.16Z"/><path class="cls-1" d="M818.21,134.44a4.48,4.48,0,0,1-1.76,3.56v-7.13A4.51,4.51,0,0,1,818.21,134.44Z"/><path class="cls-2" d="M822,135.44a8.36,8.36,0,0,1-10.66,7,8.91,8.91,0,0,1-2.06-.93,8.38,8.38,0,0,1-3.84-6.06,8.26,8.26,0,0,1-.06-1v0a8.74,8.74,0,0,1,.07-1,8.35,8.35,0,0,1,3.83-6,8.42,8.42,0,0,1,4.44-1.28,8.33,8.33,0,0,1,8.27,7.29h-2a6.46,6.46,0,0,0-1.83-3.51,6.38,6.38,0,0,0-2.05-1.34,6.4,6.4,0,0,0-4.79,0,6.57,6.57,0,0,0-2.06,1.33,6.37,6.37,0,0,0-1.84,3.53,5.77,5.77,0,0,0-.09,1v0a6.63,6.63,0,0,0,.08,1,6.4,6.4,0,0,0,1.85,3.57,6.6,6.6,0,0,0,2.06,1.34,6.4,6.4,0,0,0,4.79,0,6.58,6.58,0,0,0,2.05-1.35,6.41,6.41,0,0,0,1.83-3.55Z"/><path class="cls-1" d="M814.56,130v3.35H812.9V130a4.58,4.58,0,0,1,.83-.08A4.49,4.49,0,0,1,814.56,130Z"/><path class="cls-1" d="M814.56,135.44v3.39a3.77,3.77,0,0,1-.83.08,3.83,3.83,0,0,1-.83-.08v-3.39Z"/><rect x="871.35" y="192.05" width="38.41" height="38.41"/><path class="cls-1" d="M893.34,211.2h0a.95.95,0,1,1-1.34,1.34h0a1,1,0,0,1,.67-1.62A1,1,0,0,1,893.34,211.2Z"/><path class="cls-2" d="M885.48,203.35l5.84,5.84a.95.95,0,1,1-1.34,1.34l-.65-.65a.92.92,0,0,0-.67-.28.91.91,0,0,0-.67.28,1,1,0,0,0,0,1.34l3.42,3.43a.95.95,0,0,1-1.34,1.34l-6.86-6.85a1,1,0,0,1,0-1.34,1,1,0,0,1,1.35,0l1,1a1,1,0,0,0,1.34,0,1,1,0,0,0,0-1.35l-2.79-2.79a1,1,0,0,1,0-1.34.94.94,0,0,1,1.34,0Z"/><path class="cls-1" d="M895.29,213.15l1.7,1.7a2.86,2.86,0,0,1-2,4.87,2.82,2.82,0,0,1-2.07-.84l-.9-.89a1,1,0,0,1,0-1.35,1,1,0,0,1,1.35,0l1.05,1.06a1,1,0,0,0,1.34,0,1,1,0,0,0,0-1.35l-1.86-1.86a1,1,0,0,1,1.35-1.34Z"/><rect x="794.53" y="153.64" width="38.41" height="38.41"/><path class="cls-1" d="M816.52,172.79h0a1,1,0,0,1,0,1.34,1,1,0,0,1-1.35,0h0a1,1,0,0,1,0-1.34,1,1,0,0,1,1.35,0Z"/><path class="cls-2" d="M808.66,164.93l5.84,5.84a1,1,0,0,1,0,1.35,1,1,0,0,1-1.34,0l-.65-.65a.94.94,0,0,0-.67-.28.91.91,0,0,0-.67.28,1,1,0,0,0,0,1.34l3.42,3.43a.95.95,0,1,1-1.34,1.34l-6.86-6.85a1,1,0,0,1,1.35-1.34l1,1a1,1,0,0,0,1.34,0,1,1,0,0,0,0-1.35l-2.79-2.79a1,1,0,0,1,1.34-1.35Z"/><path class="cls-1" d="M818.47,174.74l1.7,1.7a2.85,2.85,0,1,1-4,4l-.9-.89a1,1,0,0,1,0-1.35,1,1,0,0,1,1.35,0l1,1.06a1,1,0,0,0,1.34,0,1,1,0,0,0,0-1.35l-1.86-1.86a1,1,0,0,1,1.35-1.34Z"/><rect x="832.94" y="115.23" width="38.41" height="38.41"/><path class="cls-1" d="M854.93,134.38h0a1,1,0,0,1,0,1.34,1,1,0,0,1-1.35,0h0a1,1,0,0,1,0-1.34,1,1,0,0,1,1.35,0Z"/><path class="cls-2" d="M847.07,126.52l5.84,5.84a1,1,0,0,1,0,1.35,1,1,0,0,1-1.34,0l-.65-.65a.94.94,0,0,0-.67-.28.91.91,0,0,0-.67.28,1,1,0,0,0,0,1.34l3.42,3.43a.95.95,0,0,1-1.34,1.34l-6.86-6.85a1,1,0,0,1,1.35-1.34l1,1a1,1,0,0,0,1.34,0,1,1,0,0,0,0-1.35l-2.79-2.79a1,1,0,0,1,1.34-1.35Z"/><path class="cls-1" d="M856.88,136.33l1.7,1.7a2.85,2.85,0,1,1-4,4l-.9-.89a1,1,0,0,1,0-1.35,1,1,0,0,1,1.35,0l1,1.06a1,1,0,0,0,1.34,0,1,1,0,0,0,0-1.35l-1.86-1.86a1,1,0,0,1,1.35-1.34Z"/><rect width="230.46" height="230.46"/><rect y="76.82" width="38.41" height="38.41"/><polygon class="cls-1" points="24.55 86.78 24.55 92.37 23.46 92.71 23.41 92.73 23.41 87.14 23.46 87.13 24.55 86.78"/><path class="cls-1" d="M19.93,91.88v9.24A4.13,4.13,0,0,1,18.79,104a4.35,4.35,0,0,1-1.14.85l0,0a4.3,4.3,0,0,1-.78.29l-.37.08a4.8,4.8,0,0,1-.67,0h-.1a4.15,4.15,0,0,1-4-4.15,4.07,4.07,0,0,1,.51-2,4.14,4.14,0,0,1,2-1.82l.77-.25.37-.11v1.18l-.18.06-.06,0a1.93,1.93,0,0,0-.34.11,2.73,2.73,0,0,0-.86.5,0,0,0,0,0,0,0l-.11.09L13.6,99h0l-.06.07-.08.09-.08.1a1,1,0,0,1-.08.11h0l-.08.12a3,3,0,0,0,2.47,4.58h.1a2.93,2.93,0,0,0,.67-.08,2.26,2.26,0,0,0,.37-.11,2.94,2.94,0,0,0,.78-.42l0,0a2.4,2.4,0,0,0,.45-.45l0,0,.08-.1h0a.83.83,0,0,0,.08-.12h0a1,1,0,0,0,.08-.14,3,3,0,0,0,.39-1.48V92.24Z"/><polygon class="cls-2" points="28.04 92.92 28.04 94.1 25.43 94.91 24.55 95.19 23.46 95.53 23.41 95.55 22.32 95.9 22.27 95.91 21.19 96.25 21.13 96.27 21.13 87.86 21.19 87.84 22.27 87.5 22.27 94.73 22.32 94.71 22.82 94.56 23.41 94.37 23.46 94.35 24.55 94.01 25.43 93.73 27.75 93 28.03 92.92 28.04 92.92"/><path class="cls-2" d="M17.6,92.61v8.2a1.92,1.92,0,0,1-.15.74,1.83,1.83,0,0,1-1,1V93Z"/><rect x="38.41" y="38.41" width="38.41" height="38.41"/><polygon class="cls-1" points="62.96 48.37 62.96 53.96 61.87 54.3 61.82 54.32 61.82 48.73 61.87 48.72 62.96 48.37"/><path class="cls-1" d="M58.34,53.47v9.24a4.13,4.13,0,0,1-1.14,2.86,4.35,4.35,0,0,1-1.14.85l-.05,0a4.3,4.3,0,0,1-.78.29l-.36.08a5.06,5.06,0,0,1-.68,0h-.1A4.15,4.15,0,0,1,50,62.71a4.07,4.07,0,0,1,.51-2,4.14,4.14,0,0,1,2-1.82l.77-.25.37-.11v1.18l-.18.06-.06,0a1.93,1.93,0,0,0-.34.11,2.56,2.56,0,0,0-.86.5,0,0,0,0,0,0,0l-.11.09-.12.12h0l-.06.07-.08.09-.08.1L51.7,61h0l-.08.12a3,3,0,0,0,2.47,4.58h.1a3.08,3.08,0,0,0,.68-.08,2.47,2.47,0,0,0,.36-.11,2.94,2.94,0,0,0,.78-.42l.05,0a2.4,2.4,0,0,0,.45-.45l.05-.05a.86.86,0,0,0,.07-.1h0a.83.83,0,0,0,.08-.12h0l.08-.14a3,3,0,0,0,.39-1.48V53.83Z"/><polygon class="cls-2" points="66.45 54.51 66.45 55.69 63.84 56.5 62.96 56.78 61.87 57.12 61.82 57.14 60.73 57.49 60.68 57.5 59.6 57.84 59.54 57.86 59.54 49.45 59.6 49.43 60.68 49.09 60.68 56.32 60.73 56.3 61.23 56.15 61.82 55.96 61.87 55.94 62.96 55.6 63.84 55.32 66.17 54.59 66.44 54.51 66.45 54.51"/><path class="cls-2" d="M56,54.2v8.2a1.92,1.92,0,0,1-.15.74,1.84,1.84,0,0,1-1,1V54.57Z"/><rect x="76.83" width="38.41" height="38.41"/><polygon class="cls-1" points="101.38 9.96 101.38 15.55 100.29 15.89 100.24 15.91 100.24 10.32 100.29 10.3 101.38 9.96"/><path class="cls-1" d="M96.76,15.06V24.3a4.18,4.18,0,0,1-1.14,2.86,4.4,4.4,0,0,1-1.15.85l0,0a4,4,0,0,1-.78.29l-.36.08a5,5,0,0,1-.67.05H92.5a4.16,4.16,0,0,1-4-4.15A4.19,4.19,0,0,1,91,20.48l.78-.25.36-.11V21.3l-.17.05-.07,0a2.19,2.19,0,0,0-.34.1,2.83,2.83,0,0,0-.85.51l0,0-.1.09-.13.12h0l-.07.07-.08.09-.07.1a.76.76,0,0,0-.08.11h0l-.07.12A3,3,0,0,0,92.5,27.3h.11a3,3,0,0,0,.67-.08,2.15,2.15,0,0,0,.36-.11,2.8,2.8,0,0,0,.78-.42l0,0a2.79,2.79,0,0,0,.46-.45l0-.05a.36.36,0,0,0,.07-.1h0l.09-.12v0l.09-.13a3.08,3.08,0,0,0,.39-1.48V15.42Z"/><polygon class="cls-2" points="104.87 16.09 104.87 17.28 102.26 18.09 101.38 18.37 100.29 18.71 100.24 18.73 99.15 19.07 99.09 19.09 98.02 19.43 97.95 19.45 97.95 11.04 98.02 11.02 99.09 10.68 99.09 17.91 99.15 17.89 99.64 17.74 100.24 17.55 100.29 17.53 101.38 17.19 102.26 16.91 104.58 16.18 104.86 16.1 104.87 16.09"/><path class="cls-2" d="M94.42,15.79V24a1.84,1.84,0,0,1-.14.74,1.88,1.88,0,0,1-1,1V16.16Z"/><rect x="38.41" y="76.82" width="38.41" height="38.41"/><path class="cls-1" d="M54.9,92.45v7.16a4.47,4.47,0,0,1,0-7.16Z"/><path class="cls-1" d="M62.09,96a4.5,4.5,0,0,1-1.75,3.56V92.46A4.52,4.52,0,0,1,62.09,96Z"/><path class="cls-2" d="M65.92,97a8.32,8.32,0,0,1-8.27,7.33,8.22,8.22,0,0,1-4.44-1.27A8.35,8.35,0,0,1,49.37,97a8.26,8.26,0,0,1-.06-1v0a8.6,8.6,0,0,1,.06-1,8.41,8.41,0,0,1,5.89-7,8.57,8.57,0,0,1,2.39-.34A8.34,8.34,0,0,1,65.92,95h-2a6.39,6.39,0,0,0-1.83-3.51,6.28,6.28,0,0,0-2.05-1.34,6.19,6.19,0,0,0-2.4-.47A6.36,6.36,0,0,0,51.36,95a6.9,6.9,0,0,0-.08,1v0a6.63,6.63,0,0,0,.07,1,6.35,6.35,0,0,0,1.86,3.57,6.32,6.32,0,0,0,4.44,1.8,6.38,6.38,0,0,0,2.4-.47,6.47,6.47,0,0,0,2.05-1.35A6.36,6.36,0,0,0,63.94,97Z"/><path class="cls-1" d="M58.45,91.63V95H56.78V91.63a4.4,4.4,0,0,1,1.67,0Z"/><path class="cls-1" d="M58.45,97v3.39a4.4,4.4,0,0,1-1.67,0V97Z"/><rect x="76.82" y="38.41" width="38.41" height="38.41"/><path class="cls-1" d="M93.31,54V61.2a4.49,4.49,0,0,1,0-7.17Z"/><path class="cls-1" d="M100.5,57.62a4.5,4.5,0,0,1-1.75,3.56V54.05A4.5,4.5,0,0,1,100.5,57.62Z"/><path class="cls-2" d="M104.33,58.62A8.32,8.32,0,0,1,96.06,66a8.22,8.22,0,0,1-4.44-1.27,8.35,8.35,0,0,1-3.84-6.06,8.26,8.26,0,0,1-.06-1v0a8.6,8.6,0,0,1,.06-1,8.41,8.41,0,0,1,5.89-7,8.57,8.57,0,0,1,2.39-.34,8.34,8.34,0,0,1,8.27,7.29h-2a6.33,6.33,0,0,0-1.83-3.51,6.47,6.47,0,0,0-2.05-1.35,6.38,6.38,0,0,0-8.69,4.86,6.8,6.8,0,0,0-.08,1v0a6.63,6.63,0,0,0,.07,1,6.38,6.38,0,0,0,8.7,4.9,6.47,6.47,0,0,0,2.05-1.35,6.36,6.36,0,0,0,1.84-3.55Z"/><path class="cls-1" d="M96.86,53.22v3.35H95.19V53.22a4.4,4.4,0,0,1,1.67,0Z"/><path class="cls-1" d="M96.86,58.62V62a4.4,4.4,0,0,1-1.67,0V58.62Z"/><rect width="38.41" height="38.41"/><path class="cls-1" d="M16.48,15.62v7.17a4.5,4.5,0,0,1,0-7.17Z"/><path class="cls-1" d="M23.68,19.21a4.5,4.5,0,0,1-1.75,3.56V15.64A4.5,4.5,0,0,1,23.68,19.21Z"/><path class="cls-2" d="M27.51,20.21a8.32,8.32,0,0,1-8.27,7.33,8.22,8.22,0,0,1-4.44-1.27,8.34,8.34,0,0,1-3.9-7.06v0a8.6,8.6,0,0,1,.06-1,8.36,8.36,0,0,1,3.84-6,8.22,8.22,0,0,1,4.44-1.27,8.34,8.34,0,0,1,8.27,7.29h-2a6.39,6.39,0,0,0-1.83-3.51,6.47,6.47,0,0,0-2.05-1.35A6.38,6.38,0,0,0,13,18.16a6.8,6.8,0,0,0-.08,1v0a6.63,6.63,0,0,0,.07,1,6.38,6.38,0,0,0,8.7,4.9,6.47,6.47,0,0,0,2.05-1.35,6.36,6.36,0,0,0,1.84-3.55Z"/><path class="cls-1" d="M20,14.81v3.35H18.37V14.81a4.4,4.4,0,0,1,1.67,0Z"/><path class="cls-1" d="M20,20.21V23.6a4.4,4.4,0,0,1-1.67,0V20.21Z"/><rect x="76.82" y="76.82" width="38.41" height="38.41"/><path class="cls-1" d="M98.81,96h0a.95.95,0,0,1-1.34,1.34h0a1,1,0,0,1,0-1.34,1,1,0,0,1,.67-.28A1,1,0,0,1,98.81,96Z"/><path class="cls-2" d="M91,88.11,96.8,94a1,1,0,0,1-1.35,1.35l-.65-.65a.91.91,0,0,0-.67-.28A1,1,0,0,0,93.46,96l3.43,3.43a1,1,0,0,1,0,1.34,1,1,0,0,1-1.35,0l-6.85-6.85a1,1,0,0,1,0-1.34.94.94,0,0,1,1.34,0l1,1a1,1,0,0,0,1.35-1.35l-2.8-2.79a1,1,0,0,1,0-1.35,1,1,0,0,1,1.35,0Z"/><path class="cls-1" d="M100.76,97.92l1.7,1.7a2.86,2.86,0,0,1-1.95,4.87,2.88,2.88,0,0,1-2.08-.84l-.89-.89a1,1,0,0,1,1.34-1.35l1.05,1.06a1,1,0,0,0,1.35-1.35l-1.86-1.86a1,1,0,0,1,0-1.34.94.94,0,0,1,1.34,0Z"/><rect y="38.41" width="38.41" height="38.41"/><path class="cls-1" d="M22,57.56h0a.95.95,0,1,1-1.34,1.34h0a1,1,0,0,1,0-1.34.94.94,0,0,1,1.34,0Z"/><path class="cls-2" d="M14.14,49.7,20,55.54a1,1,0,1,1-1.35,1.35L18,56.24a.91.91,0,0,0-.67-.28.92.92,0,0,0-.67.28,1,1,0,0,0,0,1.34L20.07,61a1,1,0,0,1,0,1.34,1,1,0,0,1-1.35,0L11.87,55.5a1,1,0,0,1,1.34-1.35l1,1a1,1,0,0,0,1.35,0,1,1,0,0,0,0-1.35l-2.8-2.79a1,1,0,0,1,0-1.35,1,1,0,0,1,1.35,0Z"/><path class="cls-1" d="M23.94,59.51l1.7,1.7a2.86,2.86,0,0,1-1.95,4.87,2.88,2.88,0,0,1-2.08-.84l-.89-.89a1,1,0,0,1,0-1.35.94.94,0,0,1,.67-.27,1,1,0,0,1,.67.27l1.05,1.06a1,1,0,0,0,1.35,0,1,1,0,0,0,0-1.35L22.6,60.85a1,1,0,0,1,0-1.34.94.94,0,0,1,1.34,0Z"/><rect x="38.41" width="38.41" height="38.41"/><path class="cls-1" d="M60.4,19.15h0a.95.95,0,1,1-1.34,1.34h0a1,1,0,0,1,0-1.34.92.92,0,0,1,.67-.28A.91.91,0,0,1,60.4,19.15Z"/><path class="cls-2" d="M52.55,11.29l5.84,5.84A1,1,0,1,1,57,18.48l-.65-.65a.91.91,0,0,0-.67-.28.92.92,0,0,0-.67.28,1,1,0,0,0,0,1.34l3.43,3.43a1,1,0,0,1,0,1.34,1,1,0,0,1-1.35,0l-6.85-6.85a1,1,0,0,1,1.34-1.35l1,1a1,1,0,0,0,1.35,0,1,1,0,0,0,0-1.34l-2.8-2.79a1,1,0,0,1,0-1.35,1,1,0,0,1,1.35,0Z"/><path class="cls-1" d="M62.35,21.1l1.7,1.7a2.86,2.86,0,0,1-1.95,4.87A2.88,2.88,0,0,1,60,26.83l-.89-.89a1,1,0,0,1,0-1.35.94.94,0,0,1,1.34,0l1.05,1.05a1,1,0,0,0,1.35,0,1,1,0,0,0,0-1.34L61,22.44a1,1,0,0,1,0-1.34.94.94,0,0,1,1.34,0Z"/><rect x="115.23" y="76.82" width="38.41" height="38.41"/><polygon class="cls-1" points="139.78 86.78 139.78 92.37 138.69 92.71 138.64 92.73 138.64 87.14 138.69 87.13 139.78 86.78"/><path class="cls-1" d="M135.16,91.88v9.24A4.13,4.13,0,0,1,134,104a4.35,4.35,0,0,1-1.14.85l0,0a4.3,4.3,0,0,1-.78.29l-.36.08a5.06,5.06,0,0,1-.68,0h-.1a4.15,4.15,0,0,1-4-4.15,4.07,4.07,0,0,1,.51-2,4.14,4.14,0,0,1,2-1.82l.77-.25.37-.11v1.18l-.17.06-.07,0a1.93,1.93,0,0,0-.34.11,2.73,2.73,0,0,0-.86.5s0,0,0,0l-.1.09-.13.12h0l-.06.07-.08.09-.08.1a.44.44,0,0,1-.08.11h0l-.08.12a3,3,0,0,0,2.47,4.58h.1a3.08,3.08,0,0,0,.68-.08,2.47,2.47,0,0,0,.36-.11,2.94,2.94,0,0,0,.78-.42l0,0a2.4,2.4,0,0,0,.45-.45l0,0a.86.86,0,0,0,.07-.1h0a.83.83,0,0,0,.08-.12h0a1,1,0,0,0,.08-.14,3,3,0,0,0,.39-1.48V92.24Z"/><polygon class="cls-2" points="143.27 92.92 143.27 94.1 140.67 94.91 139.78 95.19 138.69 95.53 138.64 95.55 137.55 95.9 137.5 95.91 136.42 96.25 136.36 96.27 136.36 87.86 136.42 87.84 137.5 87.5 137.5 94.73 137.55 94.71 138.05 94.56 138.64 94.37 138.69 94.35 139.78 94.01 140.67 93.73 142.99 93 143.26 92.92 143.27 92.92"/><path class="cls-2" d="M132.83,92.61v8.2a1.92,1.92,0,0,1-.15.74,1.84,1.84,0,0,1-1,1V93Z"/><rect x="153.64" y="38.41" width="38.41" height="38.41"/><polygon class="cls-1" points="178.19 48.37 178.19 53.96 177.1 54.3 177.05 54.32 177.05 48.73 177.1 48.72 178.19 48.37"/><path class="cls-1" d="M173.57,53.47v9.24a4.13,4.13,0,0,1-1.14,2.86,4.35,4.35,0,0,1-1.14.85l0,0a4.3,4.3,0,0,1-.78.29l-.36.08a5.06,5.06,0,0,1-.68,0h-.1a4.15,4.15,0,0,1-1.53-8l.77-.25.37-.11v1.18l-.17.06-.07,0a1.93,1.93,0,0,0-.34.11,2.56,2.56,0,0,0-.86.5s0,0,0,0l-.1.09-.13.12h0l-.06.07-.08.09-.08.1a.76.76,0,0,1-.08.11h0l-.08.12a3,3,0,0,0,2.47,4.58h.1a3.08,3.08,0,0,0,.68-.08,2.47,2.47,0,0,0,.36-.11,2.94,2.94,0,0,0,.78-.42l0,0a2.4,2.4,0,0,0,.45-.45l0-.05a.86.86,0,0,0,.07-.1h0a.83.83,0,0,0,.08-.12h0l.08-.14a3,3,0,0,0,.39-1.48V53.83Z"/><polygon class="cls-2" points="181.68 54.51 181.68 55.69 179.08 56.5 178.19 56.78 177.1 57.12 177.05 57.14 175.96 57.49 175.91 57.5 174.83 57.84 174.77 57.86 174.77 49.45 174.83 49.43 175.91 49.09 175.91 56.32 175.96 56.3 176.46 56.15 177.05 55.96 177.1 55.94 178.19 55.6 179.08 55.32 181.4 54.59 181.67 54.51 181.68 54.51"/><path class="cls-2" d="M171.24,54.2v8.2a1.75,1.75,0,0,1-.15.74,1.84,1.84,0,0,1-1,1V54.57Z"/><rect x="192.06" width="38.41" height="38.41"/><polygon class="cls-1" points="216.61 9.96 216.61 15.55 215.52 15.89 215.47 15.91 215.47 10.32 215.52 10.3 216.61 9.96"/><path class="cls-1" d="M212,15.06V24.3a4.18,4.18,0,0,1-1.14,2.86,4.52,4.52,0,0,1-1.14.85l-.06,0a3.81,3.81,0,0,1-.78.29l-.36.08a4.91,4.91,0,0,1-.67.05h-.11a4.16,4.16,0,0,1-4-4.15,4.19,4.19,0,0,1,2.52-3.82l.78-.25.36-.11V21.3l-.17.05-.06,0a2,2,0,0,0-.35.1,2.83,2.83,0,0,0-.85.51l0,0-.1.09-.13.12h0l-.07.07-.08.09-.07.1a.76.76,0,0,0-.08.11h0l-.07.12a3,3,0,0,0,2.46,4.57h.11a3,3,0,0,0,.67-.08,1.89,1.89,0,0,0,.36-.11,2.66,2.66,0,0,0,.78-.42l.06,0a3.19,3.19,0,0,0,.45-.45l0-.05a.36.36,0,0,0,.07-.1h0l.09-.12v0l.08-.13a3,3,0,0,0,.39-1.48V15.42Z"/><polygon class="cls-2" points="220.1 16.09 220.1 17.28 217.49 18.09 216.61 18.37 215.52 18.71 215.47 18.73 214.38 19.07 214.32 19.09 213.25 19.43 213.18 19.45 213.18 11.04 213.25 11.02 214.32 10.68 214.32 17.91 214.38 17.89 214.87 17.74 215.47 17.55 215.52 17.53 216.61 17.19 217.49 16.91 219.81 16.18 220.09 16.1 220.1 16.09"/><path class="cls-2" d="M209.65,15.79V24a1.84,1.84,0,0,1-.14.74,1.88,1.88,0,0,1-1,1V16.16Z"/><rect x="153.64" y="76.82" width="38.41" height="38.41"/><path class="cls-1" d="M170.13,92.45v7.16a4.47,4.47,0,0,1,0-7.16Z"/><path class="cls-1" d="M177.32,96a4.5,4.5,0,0,1-1.75,3.56V92.46A4.52,4.52,0,0,1,177.32,96Z"/><path class="cls-2" d="M181.15,97a8.32,8.32,0,0,1-8.27,7.33,8.22,8.22,0,0,1-4.44-1.27A8.38,8.38,0,0,1,164.6,97a8.26,8.26,0,0,1-.06-1v0a6.9,6.9,0,0,1,.07-1,8.39,8.39,0,0,1,5.88-7,8.57,8.57,0,0,1,2.39-.34A8.34,8.34,0,0,1,181.15,95h-2a6.35,6.35,0,0,0-3.88-4.85,6.19,6.19,0,0,0-2.4-.47,6.37,6.37,0,0,0-4.44,1.79A6.45,6.45,0,0,0,166.59,95a6.9,6.9,0,0,0-.08,1v0a5.55,5.55,0,0,0,.08,1,6.4,6.4,0,0,0,1.85,3.57,6.32,6.32,0,0,0,4.44,1.8,6.38,6.38,0,0,0,2.4-.47,6.47,6.47,0,0,0,2.05-1.35A6.36,6.36,0,0,0,179.17,97Z"/><path class="cls-1" d="M173.68,91.63V95H172V91.63a4.4,4.4,0,0,1,1.67,0Z"/><path class="cls-1" d="M173.68,97v3.39a4.4,4.4,0,0,1-1.67,0V97Z"/><rect x="192.05" y="38.41" width="38.41" height="38.41"/><path class="cls-1" d="M208.54,54V61.2a4.5,4.5,0,0,1,0-7.17Z"/><path class="cls-1" d="M215.73,57.62A4.5,4.5,0,0,1,214,61.18V54.05A4.5,4.5,0,0,1,215.73,57.62Z"/><path class="cls-2" d="M219.56,58.62A8.32,8.32,0,0,1,211.29,66a8.22,8.22,0,0,1-4.44-1.27A8.38,8.38,0,0,1,203,58.62a8.26,8.26,0,0,1-.06-1v0a6.9,6.9,0,0,1,.07-1,8.39,8.39,0,0,1,5.88-7,8.57,8.57,0,0,1,2.39-.34,8.34,8.34,0,0,1,8.27,7.29h-2a6.33,6.33,0,0,0-1.83-3.51,6.47,6.47,0,0,0-2.05-1.35A6.4,6.4,0,0,0,206.85,53,6.45,6.45,0,0,0,205,56.57a6.8,6.8,0,0,0-.08,1v0a5.55,5.55,0,0,0,.08,1,6.33,6.33,0,0,0,3.9,4.9,6.34,6.34,0,0,0,4.79,0,6.47,6.47,0,0,0,2.05-1.35,6.36,6.36,0,0,0,1.84-3.55Z"/><path class="cls-1" d="M212.09,53.22v3.35h-1.67V53.22a4.4,4.4,0,0,1,1.67,0Z"/><path class="cls-1" d="M212.09,58.62V62a4.4,4.4,0,0,1-1.67,0V58.62Z"/><rect x="115.23" width="38.41" height="38.41"/><path class="cls-1" d="M131.72,15.62v7.17a4.49,4.49,0,0,1,0-7.17Z"/><path class="cls-1" d="M138.91,19.21a4.5,4.5,0,0,1-1.75,3.56V15.64A4.5,4.5,0,0,1,138.91,19.21Z"/><path class="cls-2" d="M142.74,20.21a8.32,8.32,0,0,1-8.27,7.33A8.22,8.22,0,0,1,130,26.27a8.38,8.38,0,0,1-3.84-6.06,8.26,8.26,0,0,1-.06-1v0a8.6,8.6,0,0,1,.06-1,8.36,8.36,0,0,1,3.84-6,8.22,8.22,0,0,1,4.44-1.27,8.34,8.34,0,0,1,8.27,7.29h-2a6.33,6.33,0,0,0-1.83-3.51,6.47,6.47,0,0,0-2-1.35,6.38,6.38,0,0,0-8.69,4.86,6.8,6.8,0,0,0-.08,1v0a5.55,5.55,0,0,0,.08,1A6.28,6.28,0,0,0,130,23.78a6.37,6.37,0,0,0,6.84,1.33,6.47,6.47,0,0,0,2-1.35,6.36,6.36,0,0,0,1.84-3.55Z"/><path class="cls-1" d="M135.27,14.81v3.35H133.6V14.81a4.4,4.4,0,0,1,1.67,0Z"/><path class="cls-1" d="M135.27,20.21V23.6a4.4,4.4,0,0,1-1.67,0V20.21Z"/><rect x="192.05" y="76.82" width="38.41" height="38.41"/><path class="cls-1" d="M214,96h0a.95.95,0,1,1-1.34,1.34h0a1,1,0,0,1,0-1.34,1,1,0,0,1,.67-.28A1,1,0,0,1,214,96Z"/><path class="cls-2" d="M206.19,88.11,212,94a1,1,0,0,1,0,1.35,1,1,0,0,1-1.34,0l-.65-.65A1,1,0,0,0,208.69,96l3.43,3.43a1,1,0,0,1,0,1.34,1,1,0,0,1-1.35,0l-6.85-6.85a1,1,0,0,1,.67-1.62.91.91,0,0,1,.67.28l1,1a1,1,0,0,0,1.35-1.35l-2.79-2.79a1,1,0,0,1,0-1.35.94.94,0,0,1,.67-.27A1,1,0,0,1,206.19,88.11Z"/><path class="cls-1" d="M216,97.92l1.71,1.7a2.86,2.86,0,0,1-2,4.87,2.9,2.9,0,0,1-2.08-.84l-.89-.89a1,1,0,0,1,1.34-1.35l1,1.06a1,1,0,0,0,1.35-1.35l-1.86-1.86a1,1,0,0,1,0-1.34.92.92,0,0,1,.67-.28A.91.91,0,0,1,216,97.92Z"/><rect x="115.23" y="38.41" width="38.41" height="38.41"/><path class="cls-1" d="M137.22,57.56h0a.95.95,0,1,1-1.34,1.34h0a1,1,0,0,1,.67-1.62A.91.91,0,0,1,137.22,57.56Z"/><path class="cls-2" d="M129.37,49.7l5.84,5.84a1,1,0,1,1-1.35,1.35l-.65-.65a.91.91,0,0,0-.67-.28,1,1,0,0,0-.67,1.62L135.3,61a1,1,0,0,1,0,1.34,1,1,0,0,1-1.35,0L127.1,55.5a.95.95,0,0,1,.67-1.62.94.94,0,0,1,.67.27l1,1a1,1,0,0,0,1.35,0,1,1,0,0,0,0-1.35L128,51.05a1,1,0,0,1,0-1.35,1,1,0,0,1,1.35,0Z"/><path class="cls-1" d="M139.17,59.51l1.71,1.7a2.85,2.85,0,0,1,0,4,2.85,2.85,0,0,1-4,0l-.89-.89A1,1,0,0,1,137.29,63l1.05,1.06a1,1,0,0,0,1.35,0,1,1,0,0,0,0-1.35l-1.86-1.86a1,1,0,0,1,0-1.34.94.94,0,0,1,1.34,0Z"/><rect x="153.64" width="38.41" height="38.41"/><path class="cls-1" d="M175.63,19.15h0a.95.95,0,0,1-1.34,1.34h0a1,1,0,0,1,.67-1.62A.91.91,0,0,1,175.63,19.15Z"/><path class="cls-2" d="M167.78,11.29l5.84,5.84a1,1,0,0,1-1.35,1.35l-.64-.65a1,1,0,1,0-1.35,1.34l3.43,3.43a1,1,0,0,1,0,1.34,1,1,0,0,1-1.35,0l-6.85-6.85a1,1,0,0,1,0-1.35,1,1,0,0,1,.67-.27.94.94,0,0,1,.67.27l1,1a1,1,0,0,0,1.35,0,1,1,0,0,0,0-1.34l-2.8-2.79a1,1,0,0,1,1.35-1.35Z"/><path class="cls-1" d="M177.58,21.1l1.71,1.7a2.85,2.85,0,0,1,0,4,2.85,2.85,0,0,1-4,0l-.89-.89a1,1,0,0,1,0-1.35.94.94,0,0,1,1.34,0l1.05,1.05a1,1,0,0,0,1.35,0,1,1,0,0,0,0-1.34l-1.86-1.86a1,1,0,0,1,0-1.34.94.94,0,0,1,1.34,0Z"/><rect y="192.05" width="38.41" height="38.41"/><polygon class="cls-1" points="24.55 202.01 24.55 207.6 23.46 207.94 23.41 207.96 23.41 202.37 23.46 202.36 24.55 202.01"/><path class="cls-1" d="M19.93,207.11v9.24a4.13,4.13,0,0,1-1.14,2.86,4.35,4.35,0,0,1-1.14.85l0,0a4.3,4.3,0,0,1-.78.29l-.37.08a4.8,4.8,0,0,1-.67.05h-.1a4.15,4.15,0,0,1-4-4.15,4.07,4.07,0,0,1,.51-2,4.14,4.14,0,0,1,2-1.82l.77-.24.37-.12v1.18l-.18.06-.06,0a1.93,1.93,0,0,0-.34.11,2.94,2.94,0,0,0-.86.5l0,0-.11.09-.12.12h0l-.06.07-.08.09-.08.1-.08.12h0l-.08.12a3,3,0,0,0,2.47,4.58h.1a2.93,2.93,0,0,0,.67-.08,2.24,2.24,0,0,0,.37-.1,3.3,3.3,0,0,0,.78-.43l0,0a2.4,2.4,0,0,0,.45-.45.1.1,0,0,0,0,0l.08-.1h0a.83.83,0,0,0,.08-.12h0a1,1,0,0,0,.08-.14,3,3,0,0,0,.39-1.48v-8.88Z"/><polygon class="cls-2" points="28.04 208.15 28.04 209.33 25.43 210.14 24.55 210.42 23.46 210.77 23.41 210.78 22.32 211.13 22.27 211.15 21.19 211.49 21.13 211.5 21.13 203.09 21.19 203.08 22.27 202.74 22.27 209.96 22.32 209.94 22.82 209.79 23.41 209.6 23.46 209.58 24.55 209.24 25.43 208.96 27.75 208.24 28.03 208.15 28.04 208.15"/><path class="cls-2" d="M17.6,207.85V216a1.92,1.92,0,0,1-.15.74,1.83,1.83,0,0,1-1,.95v-9.52Z"/><rect x="38.41" y="153.64" width="38.41" height="38.41"/><polygon class="cls-1" points="62.96 163.6 62.96 169.19 61.87 169.53 61.82 169.55 61.82 163.96 61.87 163.95 62.96 163.6"/><path class="cls-1" d="M58.34,168.7v9.24a4.13,4.13,0,0,1-1.14,2.86,4.35,4.35,0,0,1-1.14.85l-.05,0a4.3,4.3,0,0,1-.78.29l-.36.08a5.06,5.06,0,0,1-.68.05h-.1A4.15,4.15,0,0,1,50,177.94a4.07,4.07,0,0,1,.51-2,4.14,4.14,0,0,1,2-1.82l.77-.24.37-.12v1.18l-.18.06-.06,0a1.93,1.93,0,0,0-.34.11,2.94,2.94,0,0,0-.86.5,0,0,0,0,0,0,0l-.11.09-.12.12h0l-.06.07-.08.09-.08.1-.08.12h0l-.08.12A3,3,0,0,0,54.09,181h.1a3.08,3.08,0,0,0,.68-.08,2.42,2.42,0,0,0,.36-.1,3.3,3.3,0,0,0,.78-.43l.05,0a2.4,2.4,0,0,0,.45-.45l.05,0a.86.86,0,0,0,.07-.1h0a.83.83,0,0,0,.08-.12h0a1,1,0,0,0,.08-.14,3,3,0,0,0,.39-1.48v-8.88Z"/><polygon class="cls-2" points="66.45 169.74 66.45 170.92 63.84 171.73 62.96 172.01 61.87 172.35 61.82 172.37 60.73 172.72 60.68 172.73 59.6 173.07 59.54 173.09 59.54 164.69 59.6 164.66 60.68 164.32 60.68 171.55 60.73 171.53 61.23 171.38 61.82 171.19 61.87 171.17 62.96 170.83 63.84 170.55 66.17 169.82 66.44 169.74 66.45 169.74"/><path class="cls-2" d="M56,169.44v8.19a1.92,1.92,0,0,1-.15.74,1.84,1.84,0,0,1-1,.95V169.8Z"/><rect x="76.83" y="115.23" width="38.41" height="38.41"/><polygon class="cls-1" points="101.38 125.19 101.38 130.78 100.29 131.12 100.24 131.14 100.24 125.55 100.29 125.54 101.38 125.19"/><path class="cls-1" d="M96.76,130.29v9.24a4.18,4.18,0,0,1-1.14,2.86,4.4,4.4,0,0,1-1.15.85l0,0a4,4,0,0,1-.78.29l-.36.08a5,5,0,0,1-.67.05H92.5a4.15,4.15,0,0,1-4-4.15A4.19,4.19,0,0,1,91,135.71l.78-.25.36-.11v1.18l-.17.06-.07,0a2.24,2.24,0,0,0-.34.11,3,3,0,0,0-.85.5l0,0-.1.09-.13.12h0l-.07.07-.08.09a.86.86,0,0,1-.07.1l-.08.11h0L90,138a3,3,0,0,0,2.46,4.58h.11a3,3,0,0,0,.67-.08,2.12,2.12,0,0,0,.36-.1,3.11,3.11,0,0,0,.78-.43l0,0a2.79,2.79,0,0,0,.46-.45l0-.05a.36.36,0,0,0,.07-.1h0l.09-.12h0l.09-.14a3.08,3.08,0,0,0,.39-1.48v-8.88Z"/><polygon class="cls-2" points="104.87 131.33 104.87 132.51 102.26 133.32 101.38 133.6 100.29 133.94 100.24 133.96 99.15 134.31 99.09 134.32 98.02 134.66 97.95 134.68 97.95 126.28 98.02 126.25 99.09 125.91 99.09 133.14 99.15 133.12 99.64 132.97 100.24 132.78 100.29 132.76 101.38 132.42 102.26 132.14 104.58 131.41 104.86 131.33 104.87 131.33"/><path class="cls-2" d="M94.42,131v8.19a1.74,1.74,0,0,1-1.14,1.69v-9.52Z"/><rect x="38.41" y="192.05" width="38.41" height="38.41"/><path class="cls-1" d="M54.9,207.68v7.16a4.48,4.48,0,0,1,0-7.16Z"/><path class="cls-1" d="M62.09,211.26a4.5,4.5,0,0,1-1.75,3.56V207.7A4.5,4.5,0,0,1,62.09,211.26Z"/><path class="cls-2" d="M65.92,212.26a8.32,8.32,0,0,1-8.27,7.33,8.57,8.57,0,0,1-2.39-.34,8.34,8.34,0,0,1-5.95-8v0a8.77,8.77,0,0,1,.06-1,8.36,8.36,0,0,1,3.84-6,7.92,7.92,0,0,1,2-.93,8.28,8.28,0,0,1,6.84.94,8.32,8.32,0,0,1,3.82,6h-2a6.33,6.33,0,0,0-1.83-3.5,6.34,6.34,0,0,0-4.45-1.82,6.32,6.32,0,0,0-2.39.46,6.53,6.53,0,0,0-2,1.33,6.38,6.38,0,0,0-1.85,3.53,6.93,6.93,0,0,0-.08,1v0a6.63,6.63,0,0,0,.07,1,6.41,6.41,0,0,0,3.91,4.91,6.52,6.52,0,0,0,2.39.46,6.38,6.38,0,0,0,2.4-.47,6.47,6.47,0,0,0,2.05-1.35,6.36,6.36,0,0,0,1.84-3.55Z"/><path class="cls-1" d="M58.45,206.86v3.35H56.78v-3.35a4.4,4.4,0,0,1,1.67,0Z"/><path class="cls-1" d="M58.45,212.26v3.4a5,5,0,0,1-1.67,0v-3.4Z"/><rect x="76.82" y="153.64" width="38.41" height="38.41"/><path class="cls-1" d="M93.31,169.27v7.16a4.48,4.48,0,0,1,0-7.16Z"/><path class="cls-1" d="M100.5,172.85a4.5,4.5,0,0,1-1.75,3.56v-7.12A4.5,4.5,0,0,1,100.5,172.85Z"/><path class="cls-2" d="M104.33,173.85a8.32,8.32,0,0,1-8.27,7.33,8.22,8.22,0,0,1-4.44-1.27,8.35,8.35,0,0,1-3.84-6.06,8.26,8.26,0,0,1-.06-1v0a8.77,8.77,0,0,1,.06-1,8.36,8.36,0,0,1,3.84-6,7.92,7.92,0,0,1,2-.93,8.28,8.28,0,0,1,6.84.94,8.32,8.32,0,0,1,3.82,6h-2a6.27,6.27,0,0,0-1.83-3.5,6.34,6.34,0,0,0-4.45-1.82,6.32,6.32,0,0,0-2.39.46,6.53,6.53,0,0,0-2,1.33,6.38,6.38,0,0,0-1.85,3.53,6.93,6.93,0,0,0-.08,1v0a6.63,6.63,0,0,0,.07,1,6.35,6.35,0,0,0,1.86,3.57,6.32,6.32,0,0,0,4.44,1.8,6.38,6.38,0,0,0,2.4-.47,6.47,6.47,0,0,0,2.05-1.35,6.36,6.36,0,0,0,1.84-3.55Z"/><path class="cls-1" d="M96.86,168.45v3.35H95.19v-3.35a4.4,4.4,0,0,1,1.67,0Z"/><path class="cls-1" d="M96.86,173.85v3.4a5,5,0,0,1-1.67,0v-3.4Z"/><rect y="115.23" width="38.41" height="38.41"/><path class="cls-1" d="M16.48,130.86V138a4.49,4.49,0,0,1,0-7.16Z"/><path class="cls-1" d="M23.68,134.44A4.5,4.5,0,0,1,21.93,138v-7.13A4.53,4.53,0,0,1,23.68,134.44Z"/><path class="cls-2" d="M27.51,135.44a8.32,8.32,0,0,1-8.27,7.33,8.22,8.22,0,0,1-4.44-1.27,8.34,8.34,0,0,1-3.9-7.06v0a8.72,8.72,0,0,1,.06-1,8.36,8.36,0,0,1,3.84-6,7.92,7.92,0,0,1,2.05-.93,8.28,8.28,0,0,1,6.84.94,8.32,8.32,0,0,1,3.82,6h-2a6.39,6.39,0,0,0-1.83-3.51,6.28,6.28,0,0,0-2.05-1.34,6.19,6.19,0,0,0-2.4-.47,6.32,6.32,0,0,0-2.39.46,6.53,6.53,0,0,0-2.05,1.33A6.38,6.38,0,0,0,13,133.39a6.9,6.9,0,0,0-.08,1v0a6.63,6.63,0,0,0,.07,1A6.35,6.35,0,0,0,14.8,139a6.32,6.32,0,0,0,4.44,1.8,6.38,6.38,0,0,0,2.4-.47A6.47,6.47,0,0,0,23.69,139a6.36,6.36,0,0,0,1.84-3.55Z"/><path class="cls-1" d="M20,130v3.35H18.37V130A4.4,4.4,0,0,1,20,130Z"/><path class="cls-1" d="M20,135.44v3.39a4.4,4.4,0,0,1-1.67,0v-3.39Z"/><rect x="76.82" y="192.05" width="38.41" height="38.41"/><path class="cls-1" d="M98.81,211.2h0a.95.95,0,1,1-1.34,1.34h0a1,1,0,0,1,0-1.34,1,1,0,0,1,.67-.28A1,1,0,0,1,98.81,211.2Z"/><path class="cls-2" d="M91,203.35l5.84,5.84a1,1,0,0,1,0,1.34,1,1,0,0,1-1.35,0l-.65-.65a.91.91,0,0,0-.67-.28,1,1,0,0,0-.67,1.62l3.43,3.43a1,1,0,0,1,0,1.34,1,1,0,0,1-1.35,0l-6.85-6.85a1,1,0,0,1,0-1.34.94.94,0,0,1,1.34,0l1,1a1,1,0,1,0,1.35-1.35l-2.8-2.79A1,1,0,0,1,91,203.35Z"/><path class="cls-1" d="M100.76,213.15l1.7,1.7a2.85,2.85,0,1,1-4,4l-.89-.89a1,1,0,0,1,1.34-1.35l1.05,1.06a1,1,0,0,0,1.35-1.35l-1.86-1.86a1,1,0,0,1,0-1.34.94.94,0,0,1,1.34,0Z"/><rect y="153.64" width="38.41" height="38.41"/><path class="cls-1" d="M22,172.79h0a.95.95,0,0,1-1.34,1.34h0a1,1,0,0,1,0-1.34.94.94,0,0,1,1.34,0Z"/><path class="cls-2" d="M14.14,164.93,20,170.77a1,1,0,0,1-1.35,1.35l-.65-.65a.91.91,0,0,0-.67-.28.92.92,0,0,0-.67.28,1,1,0,0,0,0,1.34l3.43,3.43a1,1,0,0,1,0,1.34,1,1,0,0,1-1.35,0l-6.85-6.85a1,1,0,0,1,0-1.34.94.94,0,0,1,1.34,0l1,1a1,1,0,1,0,1.35-1.35l-2.8-2.79a1,1,0,0,1,0-1.35,1,1,0,0,1,1.35,0Z"/><path class="cls-1" d="M23.94,174.74l1.7,1.7a2.86,2.86,0,0,1-1.95,4.87,2.88,2.88,0,0,1-2.08-.84l-.89-.89a1,1,0,0,1,0-1.35.94.94,0,0,1,.67-.27,1,1,0,0,1,.67.27l1.05,1.06a1,1,0,1,0,1.35-1.35l-1.86-1.86a1,1,0,0,1,0-1.34.94.94,0,0,1,1.34,0Z"/><rect x="38.41" y="115.23" width="38.41" height="38.41"/><path class="cls-1" d="M60.4,134.38h0a.95.95,0,1,1-1.34,1.34h0a1,1,0,0,1,0-1.34,1,1,0,0,1,.67-.28A1,1,0,0,1,60.4,134.38Z"/><path class="cls-2" d="M52.55,126.52l5.84,5.84A1,1,0,1,1,57,133.71l-.65-.65a.91.91,0,0,0-.67-.28.92.92,0,0,0-.67.28,1,1,0,0,0,0,1.34l3.43,3.43a1,1,0,0,1,0,1.34,1,1,0,0,1-1.35,0l-6.85-6.85a1,1,0,0,1,0-1.34.94.94,0,0,1,1.34,0l1,1A1,1,0,0,0,54,130.66l-2.8-2.79a1,1,0,0,1,0-1.35,1,1,0,0,1,1.35,0Z"/><path class="cls-1" d="M62.35,136.33l1.7,1.7a2.86,2.86,0,0,1-1.95,4.87,2.88,2.88,0,0,1-2.08-.84l-.89-.89a1,1,0,0,1,1.34-1.35l1.05,1.06a1,1,0,0,0,1.35-1.35L61,137.67a1,1,0,0,1,0-1.34.94.94,0,0,1,1.34,0Z"/><rect x="115.23" y="192.05" width="38.41" height="38.41"/><polygon class="cls-1" points="139.78 202.01 139.78 207.6 138.69 207.94 138.64 207.96 138.64 202.37 138.69 202.36 139.78 202.01"/><path class="cls-1" d="M135.16,207.11v9.24a4.13,4.13,0,0,1-1.14,2.86,4.35,4.35,0,0,1-1.14.85l0,0a4.3,4.3,0,0,1-.78.29l-.36.08a5.06,5.06,0,0,1-.68.05h-.1a4.15,4.15,0,0,1-4-4.15,4.07,4.07,0,0,1,.51-2,4.14,4.14,0,0,1,2-1.82l.77-.24.37-.12v1.18l-.17.06-.07,0a1.93,1.93,0,0,0-.34.11,2.94,2.94,0,0,0-.86.5l0,0-.1.09-.13.12h0l-.06.07-.08.09-.08.1a.83.83,0,0,1-.08.12h0l-.08.12a3,3,0,0,0,2.47,4.58h.1a3.08,3.08,0,0,0,.68-.08,2.42,2.42,0,0,0,.36-.1,3.3,3.3,0,0,0,.78-.43l0,0a2.4,2.4,0,0,0,.45-.45l0,0a.86.86,0,0,0,.07-.1h0a.83.83,0,0,0,.08-.12h0a1,1,0,0,0,.08-.14,3,3,0,0,0,.39-1.48v-8.88Z"/><polygon class="cls-2" points="143.27 208.15 143.27 209.33 140.67 210.14 139.78 210.42 138.69 210.77 138.64 210.78 137.55 211.13 137.5 211.15 136.42 211.49 136.36 211.5 136.36 203.09 136.42 203.08 137.5 202.74 137.5 209.96 137.55 209.94 138.05 209.79 138.64 209.6 138.69 209.58 139.78 209.24 140.67 208.96 142.99 208.24 143.26 208.15 143.27 208.15"/><path class="cls-2" d="M132.83,207.85V216a1.92,1.92,0,0,1-.15.74,1.84,1.84,0,0,1-1,.95v-9.52Z"/><rect x="153.64" y="153.64" width="38.41" height="38.41"/><polygon class="cls-1" points="178.19 163.6 178.19 169.19 177.1 169.53 177.05 169.55 177.05 163.96 177.1 163.95 178.19 163.6"/><path class="cls-1" d="M173.57,168.7v9.24a4.13,4.13,0,0,1-1.14,2.86,4.35,4.35,0,0,1-1.14.85l0,0a4.3,4.3,0,0,1-.78.29l-.36.08a5.06,5.06,0,0,1-.68.05h-.1a4.15,4.15,0,0,1-1.53-8l.77-.24.37-.12v1.18l-.17.06-.07,0a1.93,1.93,0,0,0-.34.11,2.94,2.94,0,0,0-.86.5s0,0,0,0l-.1.09-.13.12h0l-.06.07-.08.09-.08.1a.83.83,0,0,1-.08.12h0l-.08.12a3,3,0,0,0,2.47,4.58h.1a3.08,3.08,0,0,0,.68-.08,2.42,2.42,0,0,0,.36-.1,3.3,3.3,0,0,0,.78-.43l0,0a2.4,2.4,0,0,0,.45-.45l0,0a.86.86,0,0,0,.07-.1h0a.83.83,0,0,0,.08-.12h0a1,1,0,0,0,.08-.14,3,3,0,0,0,.39-1.48v-8.88Z"/><polygon class="cls-2" points="181.68 169.74 181.68 170.92 179.08 171.73 178.19 172.01 177.1 172.35 177.05 172.37 175.96 172.72 175.91 172.73 174.83 173.07 174.77 173.09 174.77 164.69 174.83 164.66 175.91 164.32 175.91 171.55 175.96 171.53 176.46 171.38 177.05 171.19 177.1 171.17 178.19 170.83 179.08 170.55 181.4 169.82 181.67 169.74 181.68 169.74"/><path class="cls-2" d="M171.24,169.44v8.19a1.75,1.75,0,0,1-.15.74,1.84,1.84,0,0,1-1,.95V169.8Z"/><rect x="192.06" y="115.23" width="38.41" height="38.41"/><polygon class="cls-1" points="216.61 125.19 216.61 130.78 215.52 131.12 215.47 131.14 215.47 125.55 215.52 125.54 216.61 125.19"/><path class="cls-1" d="M212,130.29v9.24a4.18,4.18,0,0,1-1.14,2.86,4.52,4.52,0,0,1-1.14.85l-.06,0a3.81,3.81,0,0,1-.78.29l-.36.08a4.91,4.91,0,0,1-.67.05h-.11a4.15,4.15,0,0,1-4-4.15,4.19,4.19,0,0,1,2.52-3.82l.78-.25.36-.11v1.18l-.17.06-.06,0a2,2,0,0,0-.35.11,3,3,0,0,0-.85.5l0,0-.1.09-.13.12h0l-.07.07-.08.09a.86.86,0,0,1-.07.1l-.08.11h0l-.07.12a3,3,0,0,0,2.46,4.58h.11a3,3,0,0,0,.67-.08,1.89,1.89,0,0,0,.36-.1,3,3,0,0,0,.78-.43l.06,0a3.19,3.19,0,0,0,.45-.45l0-.05a.36.36,0,0,0,.07-.1h0l.09-.12h0a1,1,0,0,1,.08-.14,3,3,0,0,0,.39-1.48v-8.88Z"/><polygon class="cls-2" points="220.1 131.33 220.1 132.51 217.49 133.32 216.61 133.6 215.52 133.94 215.47 133.96 214.38 134.31 214.32 134.32 213.25 134.66 213.18 134.68 213.18 126.28 213.25 126.25 214.32 125.91 214.32 133.14 214.38 133.12 214.87 132.97 215.47 132.78 215.52 132.76 216.61 132.42 217.49 132.14 219.81 131.41 220.09 131.33 220.1 131.33"/><path class="cls-2" d="M209.65,131v8.19a1.74,1.74,0,0,1-1.14,1.69v-9.52Z"/><rect x="153.64" y="192.05" width="38.41" height="38.41"/><path class="cls-1" d="M170.13,207.68v7.16a4.47,4.47,0,0,1,0-7.16Z"/><path class="cls-1" d="M177.32,211.26a4.5,4.5,0,0,1-1.75,3.56V207.7A4.5,4.5,0,0,1,177.32,211.26Z"/><path class="cls-2" d="M181.15,212.26a8.32,8.32,0,0,1-8.27,7.33,8.57,8.57,0,0,1-2.39-.34,8.27,8.27,0,0,1-2.05-.93,8.38,8.38,0,0,1-3.84-6.06,8.26,8.26,0,0,1-.06-1v0a7,7,0,0,1,.07-1,8.32,8.32,0,0,1,3.83-6,7.92,7.92,0,0,1,2.05-.93,8.28,8.28,0,0,1,6.84.94,8.32,8.32,0,0,1,3.82,6h-2a6.27,6.27,0,0,0-1.83-3.5,6.34,6.34,0,0,0-4.45-1.82,6.32,6.32,0,0,0-2.39.46,6.53,6.53,0,0,0-2.05,1.33,6.45,6.45,0,0,0-1.85,3.53,6.93,6.93,0,0,0-.08,1v0a5.55,5.55,0,0,0,.08,1,6.38,6.38,0,0,0,3.9,4.91,6.52,6.52,0,0,0,2.39.46,6.38,6.38,0,0,0,2.4-.47,6.47,6.47,0,0,0,2.05-1.35,6.36,6.36,0,0,0,1.84-3.55Z"/><path class="cls-1" d="M173.68,206.86v3.35H172v-3.35a4.4,4.4,0,0,1,1.67,0Z"/><path class="cls-1" d="M173.68,212.26v3.4a5,5,0,0,1-1.67,0v-3.4Z"/><rect x="192.05" y="153.64" width="38.41" height="38.41"/><path class="cls-1" d="M208.54,169.27v7.16a4.49,4.49,0,0,1,0-7.16Z"/><path class="cls-1" d="M215.73,172.85a4.5,4.5,0,0,1-1.75,3.56v-7.12A4.5,4.5,0,0,1,215.73,172.85Z"/><path class="cls-2" d="M219.56,173.85a8.32,8.32,0,0,1-8.27,7.33,8.22,8.22,0,0,1-4.44-1.27,8.38,8.38,0,0,1-3.84-6.06,8.26,8.26,0,0,1-.06-1v0a7,7,0,0,1,.07-1,8.32,8.32,0,0,1,3.83-6,7.92,7.92,0,0,1,2.05-.93,8.28,8.28,0,0,1,6.84.94,8.32,8.32,0,0,1,3.82,6h-2a6.27,6.27,0,0,0-1.83-3.5,6.34,6.34,0,0,0-4.45-1.82,6.32,6.32,0,0,0-2.39.46,6.53,6.53,0,0,0-2.05,1.33A6.45,6.45,0,0,0,205,171.8a6.93,6.93,0,0,0-.08,1v0a5.55,5.55,0,0,0,.08,1,6.4,6.4,0,0,0,1.85,3.57,6.32,6.32,0,0,0,4.44,1.8,6.38,6.38,0,0,0,2.4-.47,6.47,6.47,0,0,0,2.05-1.35,6.36,6.36,0,0,0,1.84-3.55Z"/><path class="cls-1" d="M212.09,168.45v3.35h-1.67v-3.35a4.4,4.4,0,0,1,1.67,0Z"/><path class="cls-1" d="M212.09,173.85v3.4a5,5,0,0,1-1.67,0v-3.4Z"/><rect x="115.23" y="115.23" width="38.41" height="38.41"/><path class="cls-1" d="M131.72,130.86V138a4.47,4.47,0,0,1,0-7.16Z"/><path class="cls-1" d="M138.91,134.44a4.5,4.5,0,0,1-1.75,3.56v-7.13A4.53,4.53,0,0,1,138.91,134.44Z"/><path class="cls-2" d="M142.74,135.44a8.32,8.32,0,0,1-8.27,7.33A8.22,8.22,0,0,1,130,141.5a8.38,8.38,0,0,1-3.84-6.06,8.26,8.26,0,0,1-.06-1v0a8.72,8.72,0,0,1,.06-1,8.36,8.36,0,0,1,3.84-6,7.92,7.92,0,0,1,2.05-.93,8.28,8.28,0,0,1,6.84.94,8.32,8.32,0,0,1,3.82,6h-2a6.35,6.35,0,0,0-3.88-4.85,6.19,6.19,0,0,0-2.4-.47,6.32,6.32,0,0,0-2.39.46,6.53,6.53,0,0,0-2.05,1.33,6.38,6.38,0,0,0-1.85,3.53,6.9,6.9,0,0,0-.08,1v0a5.55,5.55,0,0,0,.08,1A6.28,6.28,0,0,0,130,139a6.32,6.32,0,0,0,4.44,1.8,6.38,6.38,0,0,0,2.4-.47,6.47,6.47,0,0,0,2-1.35,6.36,6.36,0,0,0,1.84-3.55Z"/><path class="cls-1" d="M135.27,130v3.35H133.6V130a4.4,4.4,0,0,1,1.67,0Z"/><path class="cls-1" d="M135.27,135.44v3.39a4.4,4.4,0,0,1-1.67,0v-3.39Z"/><rect x="192.05" y="192.05" width="38.41" height="38.41"/><path class="cls-1" d="M214,211.2h0a.95.95,0,1,1-1.34,1.34h0a1,1,0,0,1,0-1.34,1,1,0,0,1,.67-.28A1,1,0,0,1,214,211.2Z"/><path class="cls-2" d="M206.19,203.35l5.84,5.84a.95.95,0,1,1-1.34,1.34l-.65-.65a1,1,0,0,0-1.35,1.34l3.43,3.43a1,1,0,0,1,0,1.34,1,1,0,0,1-1.35,0l-6.85-6.85a1,1,0,0,1,.67-1.62.91.91,0,0,1,.67.28l1,1a1,1,0,0,0,1.35-1.35l-2.79-2.79a1,1,0,0,1,0-1.34.91.91,0,0,1,.67-.28A.94.94,0,0,1,206.19,203.35Z"/><path class="cls-1" d="M216,213.15l1.71,1.7a2.85,2.85,0,1,1-4,4l-.89-.89a1,1,0,0,1,1.34-1.35l1,1.06a1,1,0,0,0,1.35-1.35l-1.86-1.86a1,1,0,0,1,0-1.34.92.92,0,0,1,.67-.28A.91.91,0,0,1,216,213.15Z"/><rect x="115.23" y="153.64" width="38.41" height="38.41"/><path class="cls-1" d="M137.22,172.79h0a.95.95,0,0,1-1.34,1.34h0a1,1,0,0,1,0-1.34,1,1,0,0,1,.67-.28A1,1,0,0,1,137.22,172.79Z"/><path class="cls-2" d="M129.37,164.93l5.84,5.84a1,1,0,0,1-1.35,1.35l-.65-.65a.91.91,0,0,0-.67-.28,1,1,0,0,0-.67,1.62l3.43,3.43a1,1,0,0,1,0,1.34,1,1,0,0,1-1.35,0l-6.85-6.85a1,1,0,0,1,0-1.34.92.92,0,0,1,.67-.28.91.91,0,0,1,.67.28l1,1a1,1,0,0,0,1.35-1.35l-2.8-2.79a1,1,0,0,1,0-1.35,1,1,0,0,1,1.35,0Z"/><path class="cls-1" d="M139.17,174.74l1.71,1.7a2.86,2.86,0,0,1-2,4.87,2.88,2.88,0,0,1-2.08-.84l-.89-.89a1,1,0,0,1,1.34-1.35l1.05,1.06a1,1,0,0,0,1.35-1.35l-1.86-1.86a1,1,0,0,1,0-1.34.94.94,0,0,1,1.34,0Z"/><rect x="153.64" y="115.23" width="38.41" height="38.41"/><path class="cls-1" d="M175.63,134.38h0a.95.95,0,0,1-1.34,1.34h0a1,1,0,0,1,0-1.34,1,1,0,0,1,.67-.28A1,1,0,0,1,175.63,134.38Z"/><path class="cls-2" d="M167.78,126.52l5.84,5.84a1,1,0,0,1-1.35,1.35l-.64-.65a1,1,0,0,0-1.35,1.34l3.43,3.43a1,1,0,0,1,0,1.34,1,1,0,0,1-1.35,0l-6.85-6.85a1,1,0,0,1,.67-1.62.91.91,0,0,1,.67.28l1,1a1,1,0,0,0,1.35-1.35l-2.8-2.79a1,1,0,0,1,1.35-1.35Z"/><path class="cls-1" d="M177.58,136.33l1.71,1.7a2.86,2.86,0,0,1-2,4.87,2.88,2.88,0,0,1-2.08-.84l-.89-.89a1,1,0,0,1,1.34-1.35l1.05,1.06a1,1,0,0,0,1.35-1.35l-1.86-1.86a1,1,0,0,1,0-1.34.94.94,0,0,1,1.34,0Z"/><rect class="cls-3" x="230.47" width="448.83" height="230.46"/><polygon class="cls-1" points="640.28 120.74 655.87 128.85 674.46 138.49 676.12 139.31 679.29 140.96 679.29 79.25 638.68 119.87 640.28 120.74"/><path class="cls-1" d="M536,0,382.66,153.34a60.86,60.86,0,0,1-21.11,14.12,61.62,61.62,0,0,1-46.35-1.07L481.59,0H407.82l.44.23,11.5,6L391.57,34.38l-5.39-2.82-2.06-1.06a92.8,92.8,0,0,0-10.75-5.57A100.91,100.91,0,0,0,341,16.48c-.35,0-.69-.05-1-.08-1.54-.1-3.07-.19-4.63-.27-2-.05-4-.1-6,0-.12,0-.17,0-.19,0-1.12,0-2.21.07-3.29.17-1.41,0-2.77.15-4.11.3s-2.72.29-4.08.52c-1.58.19-3.16.44-4.72.76a.64.64,0,0,1-.2.05c-1.58.3-3.14.62-4.67,1a101.37,101.37,0,0,0-50.28,167.74c.77.86,1.56,1.7,2.4,2.54a101.1,101.1,0,0,0,17.88,14.27,93.25,93.25,0,0,0,11.23,6.08A100,100,0,0,0,318.05,218c.71.12,1.46.22,2.17.29a100.27,100.27,0,0,0,21.49.18,18.92,18.92,0,0,0,2.25-.27c1.36-.13,2.67-.3,4-.52a2.51,2.51,0,0,0,.59-.1c1.66-.27,3.29-.57,4.92-.92a1.34,1.34,0,0,0,.44-.1c1.76-.37,3.49-.81,5.22-1.31a100.73,100.73,0,0,0,44.54-26L592.87,0Z"/><path class="cls-1" d="M233,216.42c-.82-.82-1.66-1.66-2.45-2.5l-.11-.12v16.66h19A139.56,139.56,0,0,1,233,216.42Z"/><path class="cls-1" d="M233,18.58A140.3,140.3,0,0,1,256,0H230.47V21.21C231.31,20.32,232.16,19.45,233,18.58Z"/><path class="cls-1" d="M647.93,167.5l-1.66-.82L612.12,148.9l-1.66-.81-33.8-17.59-2-1L679.29,24.85V0h-32L430.86,216.42a140.25,140.25,0,0,1-16.39,14H679.29V183.8Z"/><path class="cls-2" d="M277.59,105.3v-2h14.14v1.29c0,3.9,2.31,6.42,5.79,6.42,3.32,0,5.62-2.48,5.62-6.42V71.81h14.14V105.3c0,11-7.95,18.76-19.76,18.76S277.59,116.37,277.59,105.3Z"/><path class="cls-2" d="M325.27,105.89V83.46h13.54v21.85c0,4.14,2.23,6.59,5.85,6.59s5.81-2.49,5.81-6.59V83.46H364v22.43c0,11-7.74,18.17-19.35,18.17S325.27,116.89,325.27,105.89Z"/><path class="cls-2" d="M387.54,124.06c-10.72,0-17.23-5.66-17.35-14.18h13c0,2.88,2,4.2,4.57,4.2,2,0,3.86-1,3.86-3,0-2.27-3-2.92-6.75-3.54-6.1-1-14.18-2.83-14.18-12.36,0-7.88,6.71-13,16.79-13S404,87.5,404.16,95.46H391.48c0-2.51-1.69-3.68-4.14-3.68-2.17,0-3.63,1.08-3.63,2.9,0,2.24,3,2.76,6.74,3.42,6.21,1.11,14.47,2.4,14.47,12.37,0,8.21-6.94,13.59-17.38,13.59Z"/><path class="cls-2" d="M437.76,110.91v11.86h-9.32c-8.69,0-14-5.31-14-14V93.89h-7.2V90.72L424.88,72h2.79V83.46h9.87V93.89H428V106.4a4.17,4.17,0,0,0,4.55,4.51Z"/><path class="cls-2" d="M493.63,109.91v12.86H461.27v-51H475.5v38.1Z"/><path class="cls-2" d="M498.46,105.89V83.46H512v21.85c0,4.14,2.23,6.59,5.84,6.59s5.81-2.49,5.81-6.59V83.46H537.2v22.43c0,11-7.73,18.17-19.35,18.17S498.46,116.89,498.46,105.89Z"/><path class="cls-2" d="M565,124.06c-12.61,0-21.71-8.83-21.71-21s9.06-20.83,21.75-20.83c11.05,0,19.33,7,20.81,17.42H572.68A8,8,0,0,0,565,94.36c-4.76,0-8.15,3.62-8.15,8.74s3.43,8.83,8.15,8.83a7.92,7.92,0,0,0,7.69-5.74H586c-1.53,10.68-9.93,17.87-21,17.87Z"/><path class="cls-2" d="M616.21,122.77l-9.85-16.62v16.62H592.82V69.26h13.54v29.6l9.36-15.4h15.21L618.68,102.2l13.49,20.57Z"/><path class="cls-2" d="M625.36,168.77H613.84a6.37,6.37,0,0,1-.89-12.68h25.82a6.37,6.37,0,0,0,0-12.74H374.44a6.37,6.37,0,0,0,0,12.74H561.89a6.37,6.37,0,0,1-.9,12.68H488.8a6.37,6.37,0,0,0,0,12.74H625.36a6.37,6.37,0,1,0,0-12.74Z"/><rect class="cls-2" x="417.35" y="168.83" width="45.86" height="12.74" rx="6.37" ry="6.37"/><rect class="cls-2" x="295.02" y="143.35" width="54.51" height="12.74" rx="6.37" ry="6.37"/></g></g></svg>